<svg version="1.1" xmlns="http://www.w3.org/2000/svg" xmlns:xlink="http://www.w3.org/1999/xlink" viewBox="0 0 340.4 423.5">
<path fill="#fff" d="M279.3,183.9c0-17.9,13.5-32.3,30.2-32.3h0.7c16.6,0,30.1,14.4,30.2,32.2c0.1,58.3,0.1,64,0,151.1
	c0,48.9-37.1,88.5-82.7,88.5h-98c-30,0-57.6-17.4-72.2-45.5L0,210.1l9.1-7.6c18.9-17.4,47.3-15.2,63.8,4.8l24.5,29.8l0.1-204.8
	C97.5,14.5,111,0,127.7,0h0c16.7,0,30.2,14.5,30.2,32.3v123.9c0.4-17.5,13.8-31.5,30.2-31.5h0.7c16.7,0,30.2,14.5,30.2,32.3v10.4
	c0-17.9,13.5-32.3,30.2-32.3h0.1c16.7,0,30.2,14.5,30.2,32.3V183.9z"/>
</svg>
