<svg xmlns="http://www.w3.org/2000/svg" xmlns:xlink="http://www.w3.org/1999/xlink" overflow="visible" viewBox="0 0 246 73">
    <g id="partners" fill="#fff">
        <path d="M98.81 4.75h-2.83v10h2.6c3.81 0 6.05-1.57 6.05-5.12C104.64 6.41 102.62 4.75 98.81 4.75M98.63 19.55h-2.65v11.39h-5.92V0h9.06c7.09 0 11.35 3.27 11.35 9.51C110.47 16.19 105.71 19.55 98.63 19.55M124.69 20.14c-6.23.76-7.71 2.6-7.71 4.67 0 1.57.98 2.51 2.64 2.51 1.84 0 3.59-.85 5.07-2.33V20.14zM125.45 30.95L125 28.12c-1.75 1.84-3.99 3.27-7.22 3.27-3.68 0-6.14-2.24-6.14-6.01 0-5.25 4.3-7.53 13.05-8.39v-.63c0-2.33-1.35-3.23-3.73-3.23-2.51 0-4.89.72-7.22 1.75l-.67-4.31c2.51-.99 5.15-1.74 8.61-1.74 5.61 0 8.39 2.06 8.39 7.26v14.84H125.45zM140.11 18.52v12.42h-5.39V9.29h4.58l.67 4.35c1.43-2.51 3.59-4.62 6.95-4.8l.85 5.33C144.42 14.4 141.64 16.19 140.11 18.52M160.56 31.31c-4.26 0-7.13-1.57-7.13-6.5V13.68h-3.05V9.29h3.05V2.42l5.29-.8v7.67h4.44l.67 4.39h-5.11V23.9c0 1.75.81 2.69 2.87 2.69.63 0 1.21-.05 1.71-.18l.67 4.53C163.12 31.12 162.13 31.31 160.56 31.31M181.33 30.95V16.77c0-1.88-.81-3.18-2.78-3.18-1.71 0-3.36 1.08-4.93 2.74v14.62h-5.39V9.29h4.58l.49 3.05c2.02-1.93 4.31-3.49 7.22-3.49 4.04 0 6.19 2.46 6.19 6.5v15.61H181.33zM196.58 17.8h8.66c-.36-3.36-1.71-5.25-4.31-5.25C198.77 12.56 196.98 14.31 196.58 17.8M201.78 31.39c-6.06 0-10.59-3.45-10.59-11.26 0-7.04 4.21-11.3 9.87-11.3 6.5 0 9.42 4.89 9.42 11.03 0 .45-.04.99-.04 1.3h-13.95c.26 4.26 2.55 6.05 5.87 6.05 2.78 0 5.07-1.03 7.44-2.69l.63 4.22C208.1 30.36 205.28 31.39 201.78 31.39M219.54 18.52v12.42h-5.38V9.29h4.57l.67 4.35c1.43-2.51 3.59-4.62 6.95-4.8l.85 5.33C223.84 14.4 221.07 16.19 219.54 18.52M237.25 31.35c-3.14 0-6.37-.98-8.43-2.11l.71-4.48c2.34 1.53 5.2 2.56 7.89 2.56 2.33 0 3.59-.85 3.59-2.24 0-1.52-.94-2.15-4.4-3.01-5.24-1.35-7.44-2.87-7.44-6.82 0-3.72 2.96-6.37 7.98-6.37 2.83 0 5.43.54 7.58 1.53l-.72 4.48c-2.15-1.21-4.71-1.97-6.86-1.97-2.02 0-3.01.76-3.01 1.97 0 1.17.81 1.79 4.04 2.65 5.61 1.43 7.81 2.96 7.81 7.04C246 28.84 242.95 31.35 237.25 31.35M71.84 35.58c-1.02.89-2.82 2.24-3.48 2.7-.67.46-2.05 1.34-2.61 1.82-.57.49-1.85 1.66-2.47 2.34-.63.69-1.63 1.58-2.52 2.4-.88.82-2.41 1.86-2.41 1.86-.02.02-.05.03-.08.05-.57.33-1.3.14-1.63-.44-.29-.5-.18-1.12.24-1.49 0 0 .46-.58 1.39-1.43.94-.84 1.41-1.38 1.88-1.95.47-.57 2.51-3.14 2.51-3.14.08-.1.1-.25.03-.36-.09-.16-.29-.21-.45-.12-1.36.83-7.8 5.1-8.99 5.87-.81.53-3.01 1.84-3.22 1.89-.65.23-1.4-.22-1.64-.88-.18-.53 0-1.09.42-1.42 1.22-1.05 1.95-1.55 2.76-2.15.82-.61 2.88-2.17 3.87-2.92.99-.75 1.86-1.32 2.71-1.92.23-.2.24-.54.04-.77-.17-.18-.45-.23-.67-.11-.58.35-3.55 2-4.36 2.39-.82.38-1.7.67-2.95 1.2-1.25.52-2.25 1.01-2.25 1.01s-1.79.98-3.08 1.57c-.76.44-1.73.18-2.16-.57-.44-.76-.18-1.73.57-2.16.33-.24 1.48-.86 1.78-1 1.14-.55 3.65-2.05 4.71-2.58 1.05-.54 2.99-1.49 3.71-1.77.71-.28 1.96-.88 1.96-.88.26-.15.34-.48.2-.73-.13-.23-.4-.32-.64-.24-1.06.31-2.12.57-3.39.85-1.28.28-3.93.85-4.99 1.1-1.02.24-2.22.57-3.89.83-.55.13-1.13-.12-1.43-.62-.36-.64-.22-1.55.42-1.91.17-.13 2.98-1.26 3.95-1.54 1.44-.43 2.76-1.07 4.21-1.4 1.64-.37 3.32-.82 4.86-1.48 4.04-1.74 4.67-3.72 4.78-4.08.21-.69-.2-.72-.67-.75-2.48-.09-4.95.04-7.15-1.27-.73-.44-1.5-1.06-1.7-1.92C49.84 18.84 50 18.13 50.73 18c.61-.11 1.31.1 1.92.17.54.06 1.08.12 1.62.17.99.1 2.01.22 3.01.18 1.1-.04 2.14-.19 3.24-.25 3.82-.22 6.37-.12 9.62 1.68 0 0 .96.71 2.37-.02V2.88c0-1.59-1.29-2.88-2.88-2.88H34.91c.29.26.55.5.72.71.9 1.02 2.24 2.82 2.7 3.48.46.67 1.33 2.06 1.82 2.61.49.56 1.66 1.85 2.35 2.48.7.63 1.58 1.63 2.4 2.52.81.88 1.85 2.41 1.85 2.41.02.03.04.05.05.08.33.57.14 1.3-.43 1.63-.5.29-1.12.17-1.49-.24 0 0-.57-.46-1.42-1.39-.85-.93-1.38-1.42-1.96-1.88-.58-.47-3.14-2.51-3.14-2.51-.1-.08-.25-.1-.36-.03-.15.09-.21.29-.12.45.82 1.37 5.1 7.79 5.87 8.99.53.8 1.84 3.01 1.89 3.22.23.65-.22 1.4-.88 1.64-.53.19-1.09 0-1.42-.42-1.05-1.22-1.55-1.95-2.15-2.76-.62-.83-2.17-2.87-2.92-3.87-.75-1-1.32-1.86-1.94-2.71-.19-.23-.54-.24-.75-.05-.2.18-.23.46-.11.67.35.58 2 3.55 2.38 4.37.38.81.67 1.7 1.2 2.94.52 1.25 1.01 2.26 1.01 2.26s.98 1.79 1.58 3.08c.43.75.18 1.72-.57 2.16-.76.44-1.73.18-2.16-.57-.24-.33-.86-1.48-1-1.77-.55-1.14-2.05-3.66-2.58-4.71-.54-1.05-1.49-2.99-1.76-3.7-.29-.71-.89-1.96-.89-1.96-.15-.26-.47-.35-.73-.2-.23.13-.33.4-.25.64.32 1.05.57 2.11.86 3.39.28 1.28.85 3.93 1.1 4.99.23 1.03.58 2.22.84 3.9.12.55-.12 1.13-.63 1.42-.64.37-1.54.22-1.91-.41-.13-.17-1.26-2.98-1.54-3.95-.42-1.44-1.06-2.76-1.39-4.22-.37-1.64-.82-3.31-1.48-4.85-1.75-4.05-3.73-4.67-4.08-4.78-.69-.21-.73.2-.74.67-.09 2.48.04 4.95-1.28 7.16-.43.73-1.05 1.49-1.92 1.7-.63.14-1.34-.01-1.47-.74-.1-.61.1-1.31.17-1.92.07-.53.12-1.08.17-1.61.1-.99.22-2.02.18-3.02-.04-1.1-.19-2.14-.25-3.24-.22-3.82-.12-6.38 1.69-9.62 0 0 .73-.98-.03-2.41H2.88C1.29 0 0 1.29 0 2.88V37.7c.28-.32.54-.59.76-.78 1.03-.9 2.82-2.24 3.49-2.7.67-.46 2.06-1.33 2.61-1.82.56-.49 1.85-1.65 2.48-2.35.63-.69 1.63-1.58 2.52-2.39.88-.82 2.41-1.86 2.41-1.86.02-.02.05-.04.08-.06.57-.33 1.3-.14 1.63.43.29.5.18 1.12-.23 1.49 0 0-.46.57-1.4 1.42-.93.85-1.42 1.38-1.88 1.95-.46.58-2.51 3.14-2.51 3.14-.08.1-.1.25-.03.36.1.16.29.22.45.12 1.37-.82 7.8-5.09 8.99-5.87.8-.53 3.01-1.84 3.21-1.89.65-.23 1.4.22 1.64.88.19.53 0 1.09-.42 1.42-1.22 1.05-1.95 1.55-2.76 2.15-.83.61-2.88 2.17-3.87 2.92-.99.75-1.85 1.31-2.71 1.93-.22.2-.25.54-.05.76.18.19.46.23.67.11.58-.35 3.55-2.01 4.37-2.38.81-.39 1.7-.67 2.95-1.2 1.25-.52 2.25-1.02 2.25-1.02s1.79-.98 3.08-1.58c.76-.44 1.72-.18 2.16.57.44.76.18 1.73-.57 2.16-.33.24-1.48.86-1.78 1-1.13.55-3.65 2.04-4.7 2.58-1.05.54-2.99 1.48-3.71 1.77-.71.28-1.96.88-1.96.88-.26.15-.35.47-.2.73.13.23.4.32.64.24 1.06-.32 2.11-.57 3.39-.86 1.28-.28 3.93-.85 4.98-1.1 1.04-.23 2.23-.58 3.9-.84.55-.12 1.13.12 1.43.63.37.63.22 1.54-.41 1.91-.17.13-2.98 1.26-3.95 1.54-1.44.42-2.76 1.07-4.22 1.39-1.64.37-3.31.81-4.86 1.48-4.04 1.75-4.67 3.73-4.78 4.08-.21.69.2.73.67.75 2.48.09 4.95-.04 7.16 1.27.73.43 1.49 1.06 1.7 1.92.15.63-.01 1.34-.74 1.47-.61.1-1.31-.1-1.92-.17-.54-.06-1.08-.12-1.62-.17-.99-.1-2.02-.23-3.02-.18-1.1.04-2.14.19-3.24.25-3.82.22-6.37.12-9.62-1.69 0 0-1-.74-2.46.06v17.02c0 1.59 1.29 2.88 2.88 2.88h34.81c-.3-.26-.55-.5-.73-.71-.89-1.02-2.24-2.82-2.7-3.48-.46-.67-1.33-2.06-1.82-2.61-.49-.56-1.66-1.85-2.34-2.48-.7-.63-1.58-1.63-2.4-2.52-.82-.88-1.86-2.41-1.86-2.41-.02-.02-.04-.05-.06-.08-.33-.57-.14-1.3.43-1.63.5-.29 1.12-.18 1.49.23 0 0 .58.46 1.43 1.4.84.93 1.38 1.41 1.95 1.88.57.46 3.14 2.51 3.14 2.51.1.08.24.09.36.03.16-.09.21-.29.12-.45-.82-1.37-5.09-7.8-5.88-8.99-.53-.8-1.84-3.01-1.88-3.21-.23-.65.22-1.41.88-1.64.53-.18 1.09.01 1.42.43 1.05 1.22 1.56 1.95 2.15 2.76.61.83 2.17 2.87 2.92 3.87.75.99 1.32 1.85 1.93 2.71.2.22.54.24.77.04.19-.17.23-.45.1-.67-.35-.58-2-3.55-2.38-4.36-.39-.81-.67-1.7-1.2-2.94-.52-1.25-1.01-2.26-1.01-2.26s-.97-1.79-1.57-3.07c-.44-.76-.18-1.72.57-2.16.76-.44 1.73-.18 2.16.57.24.33.86 1.48 1 1.78.55 1.14 2.05 3.65 2.59 4.7.54 1.05 1.48 3 1.76 3.71.29.71.89 1.96.89 1.96.15.26.48.35.73.2.22-.13.32-.4.24-.64-.32-1.06-.57-2.12-.86-3.4-.28-1.28-.85-3.93-1.1-4.99-.24-1.03-.58-2.22-.84-3.9-.13-.55.12-1.13.62-1.43.64-.36 1.55-.21 1.91.42.13.17 1.26 2.98 1.54 3.95.43 1.44 1.07 2.76 1.4 4.22.37 1.64.82 3.31 1.48 4.85 1.74 4.05 3.73 4.67 4.08 4.78.69.21.72-.2.74-.67.09-2.48-.03-4.95 1.28-7.15.43-.73 1.05-1.5 1.91-1.7.63-.15 1.34.01 1.47.74.11.61-.1 1.31-.17 1.92-.06.54-.12 1.08-.17 1.62-.1.99-.22 2.01-.18 3.01.04 1.1.19 2.14.25 3.25.23 3.82.12 6.37-1.68 9.62 0 0-.72.97.03 2.41h17c1.59 0 2.88-1.29 2.88-2.88V34.9C72.26 35.17 72.04 35.41 71.84 35.58" />
    </g>
    <g id="icon" fill="#fff">
        <path d="M71.84,35.58c-1.02,0.89-2.82,2.24-3.48,2.7c-0.67,0.46-2.05,1.34-2.61,1.82c-0.57,0.49-1.85,1.66-2.47,2.34	c-0.63,0.69-1.63,1.58-2.52,2.4c-0.88,0.82-2.41,1.86-2.41,1.86c-0.02,0.02-0.05,0.03-0.08,0.05c-0.57,0.33-1.3,0.14-1.63-0.44	c-0.29-0.5-0.18-1.12,0.24-1.49c0,0,0.46-0.58,1.39-1.43c0.94-0.84,1.41-1.38,1.88-1.95c0.47-0.57,2.51-3.14,2.51-3.14	c0.08-0.1,0.1-0.25,0.03-0.36c-0.09-0.16-0.29-0.21-0.45-0.12c-1.36,0.83-7.8,5.1-8.99,5.87c-0.81,0.53-3.01,1.84-3.22,1.89	c-0.65,0.23-1.4-0.22-1.64-0.88c-0.18-0.53,0-1.09,0.42-1.42c1.22-1.05,1.95-1.55,2.76-2.15c0.82-0.61,2.88-2.17,3.87-2.92	c0.99-0.75,1.86-1.32,2.71-1.92c0.23-0.2,0.24-0.54,0.04-0.77c-0.17-0.18-0.45-0.23-0.67-0.11c-0.58,0.35-3.55,2-4.36,2.39	c-0.82,0.38-1.7,0.67-2.95,1.2c-1.25,0.52-2.25,1.01-2.25,1.01s-1.79,0.98-3.08,1.57c-0.76,0.44-1.73,0.18-2.16-0.57	c-0.44-0.76-0.18-1.73,0.57-2.16c0.33-0.24,1.48-0.86,1.78-1c1.14-0.55,3.65-2.05,4.71-2.58c1.05-0.54,2.99-1.49,3.71-1.77	c0.71-0.28,1.96-0.88,1.96-0.88c0.26-0.15,0.34-0.48,0.2-0.73c-0.13-0.23-0.4-0.32-0.64-0.24c-1.06,0.31-2.12,0.57-3.39,0.85	c-1.28,0.28-3.93,0.85-4.99,1.1c-1.02,0.24-2.22,0.57-3.89,0.83c-0.55,0.13-1.13-0.12-1.43-0.62c-0.36-0.64-0.22-1.55,0.42-1.91	c0.17-0.13,2.98-1.26,3.95-1.54c1.44-0.43,2.76-1.07,4.21-1.4c1.64-0.37,3.32-0.82,4.86-1.48c4.04-1.74,4.67-3.72,4.78-4.08	c0.21-0.69-0.2-0.72-0.67-0.75c-2.48-0.09-4.95,0.04-7.15-1.27c-0.73-0.44-1.5-1.06-1.7-1.92C49.84,18.84,50,18.13,50.73,18	c0.61-0.11,1.31,0.1,1.92,0.17c0.54,0.06,1.08,0.12,1.62,0.17c0.99,0.1,2.01,0.22,3.01,0.18c1.1-0.04,2.14-0.19,3.24-0.25	c3.82-0.22,6.37-0.12,9.62,1.68c0,0,0.96,0.71,2.37-0.02V2.88c0-1.59-1.29-2.88-2.88-2.88H34.91c0.29,0.26,0.55,0.5,0.72,0.71	c0.9,1.02,2.24,2.82,2.7,3.48c0.46,0.67,1.33,2.06,1.82,2.61c0.49,0.56,1.66,1.85,2.35,2.48c0.7,0.63,1.58,1.63,2.4,2.52	c0.81,0.88,1.85,2.41,1.85,2.41c0.02,0.03,0.04,0.05,0.05,0.08c0.33,0.57,0.14,1.3-0.43,1.63c-0.5,0.29-1.12,0.17-1.49-0.24	c0,0-0.57-0.46-1.42-1.39c-0.85-0.93-1.38-1.42-1.96-1.88c-0.58-0.47-3.14-2.51-3.14-2.51c-0.1-0.08-0.25-0.1-0.36-0.03	c-0.15,0.09-0.21,0.29-0.12,0.45c0.82,1.37,5.1,7.79,5.87,8.99c0.53,0.8,1.84,3.01,1.89,3.22c0.23,0.65-0.22,1.4-0.88,1.64	c-0.53,0.19-1.09,0-1.42-0.42c-1.05-1.22-1.55-1.95-2.15-2.76c-0.62-0.83-2.17-2.87-2.92-3.87c-0.75-1-1.32-1.86-1.94-2.71	c-0.19-0.23-0.54-0.24-0.75-0.05c-0.2,0.18-0.23,0.46-0.11,0.67c0.35,0.58,2,3.55,2.38,4.37c0.38,0.81,0.67,1.7,1.2,2.94	c0.52,1.25,1.01,2.26,1.01,2.26s0.98,1.79,1.58,3.08c0.43,0.75,0.18,1.72-0.57,2.16c-0.76,0.44-1.73,0.18-2.16-0.57	c-0.24-0.33-0.86-1.48-1-1.77c-0.55-1.14-2.05-3.66-2.58-4.71c-0.54-1.05-1.49-2.99-1.76-3.7c-0.29-0.71-0.89-1.96-0.89-1.96	c-0.15-0.26-0.47-0.35-0.73-0.2c-0.23,0.13-0.33,0.4-0.25,0.64c0.32,1.05,0.57,2.11,0.86,3.39c0.28,1.28,0.85,3.93,1.1,4.99	c0.23,1.03,0.58,2.22,0.84,3.9c0.12,0.55-0.12,1.13-0.63,1.42c-0.64,0.37-1.54,0.22-1.91-0.41c-0.13-0.17-1.26-2.98-1.54-3.95	c-0.42-1.44-1.06-2.76-1.39-4.22c-0.37-1.64-0.82-3.31-1.48-4.85c-1.75-4.05-3.73-4.67-4.08-4.78c-0.69-0.21-0.73,0.2-0.74,0.67	c-0.09,2.48,0.04,4.95-1.28,7.16c-0.43,0.73-1.05,1.49-1.92,1.7c-0.63,0.14-1.34-0.01-1.47-0.74c-0.1-0.61,0.1-1.31,0.17-1.92	c0.07-0.53,0.12-1.08,0.17-1.61c0.1-0.99,0.22-2.02,0.18-3.02c-0.04-1.1-0.19-2.14-0.25-3.24c-0.22-3.82-0.12-6.38,1.69-9.62	c0,0,0.73-0.98-0.03-2.41H2.88C1.29,0,0,1.29,0,2.88V37.7c0.28-0.32,0.54-0.59,0.76-0.78c1.03-0.9,2.82-2.24,3.49-2.7	c0.67-0.46,2.06-1.33,2.61-1.82c0.56-0.49,1.85-1.65,2.48-2.35c0.63-0.69,1.63-1.58,2.52-2.39c0.88-0.82,2.41-1.86,2.41-1.86	c0.02-0.02,0.05-0.04,0.08-0.06c0.57-0.33,1.3-0.14,1.63,0.43c0.29,0.5,0.18,1.12-0.23,1.49c0,0-0.46,0.57-1.4,1.42	c-0.93,0.85-1.42,1.38-1.88,1.95c-0.46,0.58-2.51,3.14-2.51,3.14c-0.08,0.1-0.1,0.25-0.03,0.36c0.1,0.16,0.29,0.22,0.45,0.12	c1.37-0.82,7.8-5.09,8.99-5.87c0.8-0.53,3.01-1.84,3.21-1.89c0.65-0.23,1.4,0.22,1.64,0.88c0.19,0.53,0,1.09-0.42,1.42	c-1.22,1.05-1.95,1.55-2.76,2.15c-0.83,0.61-2.88,2.17-3.87,2.92c-0.99,0.75-1.85,1.31-2.71,1.93c-0.22,0.2-0.25,0.54-0.05,0.76	c0.18,0.19,0.46,0.23,0.67,0.11c0.58-0.35,3.55-2.01,4.37-2.38c0.81-0.39,1.7-0.67,2.95-1.2c1.25-0.52,2.25-1.02,2.25-1.02	s1.79-0.98,3.08-1.58c0.76-0.44,1.72-0.18,2.16,0.57c0.44,0.76,0.18,1.73-0.57,2.16c-0.33,0.24-1.48,0.86-1.78,1	c-1.13,0.55-3.65,2.04-4.7,2.58c-1.05,0.54-2.99,1.48-3.71,1.77c-0.71,0.28-1.96,0.88-1.96,0.88c-0.26,0.15-0.35,0.47-0.2,0.73	c0.13,0.23,0.4,0.32,0.64,0.24c1.06-0.32,2.11-0.57,3.39-0.86c1.28-0.28,3.93-0.85,4.98-1.1c1.04-0.23,2.23-0.58,3.9-0.84	c0.55-0.12,1.13,0.12,1.43,0.63c0.37,0.63,0.22,1.54-0.41,1.91c-0.17,0.13-2.98,1.26-3.95,1.54c-1.44,0.42-2.76,1.07-4.22,1.39	c-1.64,0.37-3.31,0.81-4.86,1.48c-4.04,1.75-4.67,3.73-4.78,4.08c-0.21,0.69,0.2,0.73,0.67,0.75c2.48,0.09,4.95-0.04,7.16,1.27	c0.73,0.43,1.49,1.06,1.7,1.92c0.15,0.63-0.01,1.34-0.74,1.47c-0.61,0.1-1.31-0.1-1.92-0.17c-0.54-0.06-1.08-0.12-1.62-0.17	c-0.99-0.1-2.02-0.23-3.02-0.18c-1.1,0.04-2.14,0.19-3.24,0.25c-3.82,0.22-6.37,0.12-9.62-1.69c0,0-1-0.74-2.46,0.06v17.02	c0,1.59,1.29,2.88,2.88,2.88h34.81c-0.3-0.26-0.55-0.5-0.73-0.71c-0.89-1.02-2.24-2.82-2.7-3.48c-0.46-0.67-1.33-2.06-1.82-2.61	c-0.49-0.56-1.66-1.85-2.34-2.48c-0.7-0.63-1.58-1.63-2.4-2.52c-0.82-0.88-1.86-2.41-1.86-2.41c-0.02-0.02-0.04-0.05-0.06-0.08	c-0.33-0.57-0.14-1.3,0.43-1.63c0.5-0.29,1.12-0.18,1.49,0.23c0,0,0.58,0.46,1.43,1.4c0.84,0.93,1.38,1.41,1.95,1.88	c0.57,0.46,3.14,2.51,3.14,2.51c0.1,0.08,0.24,0.09,0.36,0.03c0.16-0.09,0.21-0.29,0.12-0.45c-0.82-1.37-5.09-7.8-5.88-8.99	c-0.53-0.8-1.84-3.01-1.88-3.21c-0.23-0.65,0.22-1.41,0.88-1.64c0.53-0.18,1.09,0.01,1.42,0.43c1.05,1.22,1.56,1.95,2.15,2.76	c0.61,0.83,2.17,2.87,2.92,3.87c0.75,0.99,1.32,1.85,1.93,2.71c0.2,0.22,0.54,0.24,0.77,0.04c0.19-0.17,0.23-0.45,0.1-0.67	c-0.35-0.58-2-3.55-2.38-4.36c-0.39-0.81-0.67-1.7-1.2-2.94c-0.52-1.25-1.01-2.26-1.01-2.26s-0.97-1.79-1.57-3.07	c-0.44-0.76-0.18-1.72,0.57-2.16c0.76-0.44,1.73-0.18,2.16,0.57c0.24,0.33,0.86,1.48,1,1.78c0.55,1.14,2.05,3.65,2.59,4.7	c0.54,1.05,1.48,3,1.76,3.71c0.29,0.71,0.89,1.96,0.89,1.96c0.15,0.26,0.48,0.35,0.73,0.2c0.22-0.13,0.32-0.4,0.24-0.64	c-0.32-1.06-0.57-2.12-0.86-3.4c-0.28-1.28-0.85-3.93-1.1-4.99c-0.24-1.03-0.58-2.22-0.84-3.9c-0.13-0.55,0.12-1.13,0.62-1.43	c0.64-0.36,1.55-0.21,1.91,0.42c0.13,0.17,1.26,2.98,1.54,3.95c0.43,1.44,1.07,2.76,1.4,4.22c0.37,1.64,0.82,3.31,1.48,4.85	c1.74,4.05,3.73,4.67,4.08,4.78c0.69,0.21,0.72-0.2,0.74-0.67c0.09-2.48-0.03-4.95,1.28-7.15c0.43-0.73,1.05-1.5,1.91-1.7	c0.63-0.15,1.34,0.01,1.47,0.74c0.11,0.61-0.1,1.31-0.17,1.92c-0.06,0.54-0.12,1.08-0.17,1.62c-0.1,0.99-0.22,2.01-0.18,3.01	c0.04,1.1,0.19,2.14,0.25,3.25c0.23,3.82,0.12,6.37-1.68,9.62c0,0-0.72,0.97,0.03,2.41h17c1.59,0,2.88-1.29,2.88-2.88V34.9	C72.26,35.17,72.04,35.41,71.84,35.58" />
    </g>
    <g id="inhealth" fill="#fff">
        <path d="M90.06 42.26H93.08V72.5H90.06zM113.42 72.5V58.21c0-2.68-1.23-4.3-3.86-4.3-2.19 0-4.42 1.36-6.7 3.6V72.5h-2.89V51.77h2.23l.49 3.07c2.28-2.02 4.64-3.51 7.45-3.51 4.12 0 6.18 2.37 6.18 6.35V72.5H113.42zM152.89 72.5L152.89 58.04 136.1 58.04 136.1 72.5 133.08 72.5 133.08 42.26 136.1 42.26 136.1 55.32 152.89 55.32 152.89 42.26 155.91 42.26 155.91 72.5zM163.31 60.05h11.31c-.26-3.73-2.06-6.4-5.39-6.4C165.99 53.65 163.84 56.06 163.31 60.05M169.62 72.94c-5.44 0-9.33-3.68-9.33-10.83 0-6.66 3.86-10.78 8.94-10.78 5.65 0 8.37 4.64 8.37 10.39v.61h-14.42c.09 5.13 2.45 8.11 6.62 8.11 2.76 0 5.17-1.23 7.32-3.07l.43 2.63C175.5 71.75 172.83 72.94 169.62 72.94M195.09 61.5c-8.15.83-10.43 2.8-10.43 5.61 0 2.24 1.53 3.37 3.72 3.37 2.24 0 4.7-1.22 6.71-3.11V61.5zM195.74 72.5l-.48-2.76c-1.93 1.8-4.34 3.2-7.32 3.2-3.59 0-6.18-1.97-6.18-5.65 0-4.86 3.95-7.15 13.33-8.07v-1.36c0-2.81-1.67-3.99-4.29-3.99-2.46 0-4.87.74-7.15 1.83l-.39-2.58c2.41-1.05 4.78-1.8 7.71-1.8 4.6 0 6.97 2.14 6.97 6.4V72.5H195.74zM204.82 72.5L204.82 41.56 207.66 41.03 207.66 72.5zM221.17 72.85c-3.25 0-5.4-1.27-5.4-5.08V54.23h-3.2v-2.46h3.2v-7.19l2.85-.48v7.67h4.78l.39 2.46h-5.17v13.06c0 2.1.83 3.02 3.07 3.02.66 0 1.45-.13 1.93-.22l.44 2.41C223.44 72.68 222.39 72.85 221.17 72.85M242.68 72.5V58.21c0-2.68-1.23-4.3-3.86-4.3-2.19 0-4.43 1.36-6.7 3.6V72.5h-2.89V41.56l2.89-.52v13.68c2.15-1.89 4.47-3.38 7.27-3.38 4.12 0 6.18 2.37 6.18 6.31V72.5H242.68z" />
    </g>
</svg>
