<svg xmlns="http://www.w3.org/2000/svg" width="174.2" height="162.4">
    <g fill="#c21b17">
        <path d="M9.6 149.7l.1 3.7h-.3c-.1-.6-.3-1.1-.5-1.5-.2-.4-.5-.8-.8-1.1-.6-.6-1.4-.9-2.2-.9a2.7 2.7 0 00-2.7 2.1c-.2 1-.3 2.3-.3 3.9 0 1.2 0 2.2.1 2.9.1.7.2 1.3.3 1.7.2.5.6.9 1.1 1.2.4.2.8.3 1.2.3.5 0 .9-.1 1.3-.4.4-.3.7-.7.8-1.1.2-.4.2-1.2.3-2.2H6.2v-.4h5.3v.4h-1.2c-.1.9-.2 1.6-.6 2.1-.4.6-.9 1.1-1.7 1.5a4.4 4.4 0 01-5.7-1.1A6.81 6.81 0 01.5 156c0-1.3.3-2.5.9-3.6a5.28 5.28 0 014.6-2.9c.9 0 1.8.3 2.8.9l.6-.7h.2zM13.9 161.9v-11.8h-1.6v-.4h5.1v.4h-1.6v11.8H18c.8 0 1.3 0 1.6-.1.3-.1.6-.3.9-.6.5-.5.8-1.4 1.1-2.8h.4l-.3 3.9h-9.3v-.4h1.5zM28.6 150c-.5 0-1 .1-1.5.3-.4.2-.8.6-1 1-.2.4-.4.9-.5 1.6-.1.7-.1 1.7-.1 3.1 0 1.4.1 2.5.2 3.2.1.7.3 1.3.6 1.6.5.7 1.3 1.1 2.4 1.1.5 0 1-.1 1.5-.3.4-.2.8-.6 1-1 .2-.4.4-.9.5-1.6.1-.7.1-1.7.1-3 0-1.5-.1-2.6-.2-3.3-.1-.7-.3-1.3-.6-1.7-.6-.6-1.3-1-2.4-1m0-.4c1.4 0 2.6.6 3.6 1.7.6.7 1.1 1.5 1.4 2.5.3.8.4 1.6.4 2.4a8 8 0 01-.8 3.3c-.6 1.1-1.4 2-2.3 2.5a4.65 4.65 0 01-5.9-1.1c-.6-.7-1.1-1.5-1.4-2.5-.3-.8-.4-1.5-.4-2.3 0-1.2.3-2.3.8-3.3.6-1.1 1.4-1.9 2.3-2.5.7-.5 1.5-.7 2.3-.7M39 161.9h1.1c.6 0 1.1 0 1.4-.1.3-.1.6-.2.8-.4.5-.5.8-1.3.8-2.4 0-1.1-.2-1.9-.7-2.4-.5-.4-1.3-.7-2.4-.7h-1.1v6zm0-6.4h1c1.1 0 1.9-.3 2.3-.8.3-.4.5-1.1.5-1.9 0-1.1-.3-1.8-.8-2.3-.2-.2-.6-.3-.9-.4-.4-.1-.9-.1-1.7-.1H39v5.5zm-2 6.4v-11.8h-1.6v-.4h4.1c1.3 0 2.2.1 2.8.2 1 .3 1.7.7 2.1 1.3.3.4.4.9.4 1.5 0 .8-.3 1.4-.8 1.9s-1.4.9-2.4 1.1c1 .1 1.8.3 2.5.8.9.6 1.3 1.4 1.3 2.5a3 3 0 01-1.3 2.5c-.4.3-.9.5-1.5.7-.6.1-1.5.2-2.7.2h-4.5v-.4H37zM52.6 157.8l-1.8-5.2-1.8 5.2h3.6zm.2.4H49l-1.2 3.7h1.6v.4h-3v-.4h.9l4.2-12.1h.6l4.1 12.1h1.3v.4h-5.1v-.4H54l-1.2-3.7zM59.5 161.9v-11.8h-1.6v-.4H63v.4h-1.6v11.8h2.2c.8 0 1.3 0 1.6-.1.3-.1.6-.3.9-.6.5-.5.8-1.4 1.1-2.8h.2l-.3 3.9h-9.3v-.4h1.7zM79 157.8l-1.8-5.2-1.8 5.2H79zm.1.4h-3.8l-1.2 3.7h1.6v.4h-3v-.4h.9l4.2-12.1h.6l4 12.1h1.3v.4h-5.1v-.4h1.6l-1.1-3.7zM91.6 149.6v3.3h-.3c-.1-.7-.3-1.3-.7-1.8a2.99 2.99 0 00-4.1-.5c-.5.4-.7 1-.7 1.6 0 .7.3 1.2.8 1.5.3.2 1 .4 2.1.7.7.2 1.3.4 1.6.5.3.1.6.3.8.5.7.7 1.1 1.6 1.1 2.8 0 1.3-.4 2.3-1.1 3.1-.7.8-1.6 1.1-2.6 1.1s-1.9-.4-2.8-1.1l-.7.9h-.4v-3.9h.3c.2.9.4 1.7.8 2.2.7 1 1.6 1.4 2.8 1.4.7 0 1.3-.2 1.8-.6.6-.5.9-1.2.9-2.1 0-.8-.3-1.4-.9-1.9-.2-.1-.4-.2-.7-.3-.3-.1-.8-.2-1.5-.4-.8-.2-1.3-.4-1.7-.5-.3-.1-.6-.3-.9-.6-.6-.6-.9-1.3-.9-2.2 0-.5.1-1 .3-1.5.2-.5.4-.9.8-1.2.7-.7 1.5-1.1 2.4-1.1a4 4 0 012.3.8l.7-.8h.5zM100.9 149.6v3.3h-.3c-.1-.7-.3-1.3-.7-1.8a2.99 2.99 0 00-4.1-.5c-.5.4-.7 1-.7 1.6 0 .7.3 1.2.8 1.5.3.2 1 .4 2.1.7.7.2 1.3.4 1.6.5.3.1.6.3.8.5.7.7 1.1 1.6 1.1 2.8 0 1.3-.4 2.3-1.1 3.1-.7.8-1.6 1.1-2.6 1.1s-1.9-.4-2.8-1.1l-.7.9H94v-3.9h.3c.2.9.4 1.7.8 2.2.7 1 1.6 1.4 2.8 1.4.7 0 1.3-.2 1.8-.6.6-.5.9-1.2.9-2.1 0-.8-.3-1.4-.9-1.9-.2-.1-.4-.2-.7-.3-.3-.1-.8-.2-1.5-.4-.8-.2-1.3-.4-1.7-.5-.3-.1-.6-.3-.9-.6-.6-.6-.9-1.3-.9-2.2 0-.5.1-1 .3-1.5.2-.5.4-.9.8-1.2.7-.7 1.5-1.1 2.4-1.1a4 4 0 012.3.8l.7-.8h.4zM104.6 161.9v-11.8H103v-.4h5.1v.4h-1.5v11.8h1.5v.4H103v-.4zM116.6 149.6v3.3h-.3c-.1-.7-.3-1.3-.7-1.8a2.99 2.99 0 00-4.1-.5c-.5.4-.7 1-.7 1.6 0 .7.3 1.2.8 1.5.3.2 1 .4 2.1.7.7.2 1.3.4 1.6.5.3.1.6.3.8.5.7.7 1.1 1.6 1.1 2.8 0 1.3-.4 2.3-1.1 3.1-.7.8-1.6 1.1-2.6 1.1s-1.9-.4-2.8-1.1l-.7.9h-.4v-3.9h.3c.2.9.4 1.7.8 2.2.7 1 1.6 1.4 2.8 1.4.7 0 1.3-.2 1.8-.6.6-.5.9-1.2.9-2.1 0-.8-.3-1.4-.9-1.9-.2-.1-.4-.2-.7-.3-.3-.1-.8-.2-1.5-.4-.8-.2-1.3-.4-1.7-.5-.3-.1-.6-.3-.9-.6-.6-.6-.9-1.3-.9-2.2 0-.5.1-1 .3-1.5.2-.5.4-.9.8-1.2.7-.7 1.5-1.1 2.4-1.1a4 4 0 012.3.8l.7-.8h.5zM122.5 161.9v-11.8h-.6c-.6 0-1.1 0-1.4.1-.3.1-.5.3-.8.6-.6.7-.9 1.7-1.1 2.8h-.3l.1-3.9h10.3l.1 3.9h-.3c-.2-1.1-.6-2.1-1.1-2.8-.3-.3-.5-.5-.8-.6-.3-.1-.7-.1-1.4-.1h-.6v11.8h1.8v.4h-5.6v-.4h1.7zM135.3 157.8l-1.8-5.2-1.8 5.2h3.6zm.1.4h-3.8l-1.2 3.7h1.6v.4h-3v-.4h.9l4.2-12.1h.6l4.1 12.1h1.3v.4H135v-.4h1.6l-1.2-3.7zM142 161.9v-11.8h-1.6v-.4h3.9l3.6 5.5 2.1 3.3v-8.4h-1.6v-.4h3.6v.4h-1.6v12.1h-.4l-7.7-11.8v11.4h1.6v.4h-3.6v-.4h1.7zM162.6 158.7v3.5h-.3l-.6-.9c-1 .7-2.1 1.1-3.1 1.1-1.2 0-2.3-.4-3.3-1.3-.6-.6-1.2-1.3-1.5-2.2-.4-.9-.6-1.8-.6-2.9 0-1.6.4-3 1.3-4.1a5 5 0 012.4-1.9c.6-.3 1.3-.4 1.9-.4 1 0 2 .4 2.9 1.1l.6-.9h.3v3.3h-.3c-.2-.8-.6-1.5-1.1-2.1-.6-.6-1.4-1-2.4-1-1.2 0-2.1.5-2.6 1.4-.4.7-.6 2.4-.6 5.1 0 1.3 0 2.2.1 2.9s.2 1.1.5 1.4c.2.4.6.6 1 .8.4.2.9.3 1.4.3 1.7 0 2.9-1.1 3.6-3.3h.4zM165.6 161.9v-11.8H164v-.4h9l.1 3.4h-.3c-.2-1-.5-1.7-.9-2.1-.3-.4-.6-.6-1-.7-.4-.1-1.1-.2-2-.2h-1.4v5.6c.8 0 1.4 0 1.7-.1.3-.1.5-.2.7-.4l.3-.6c.1-.3.1-.7.1-1.2h.2v5.2h-.2c0-.6-.1-1-.1-1.1 0-.2-.1-.4-.2-.6a.9.9 0 00-.6-.6c-.3-.1-.7-.2-1.2-.2h-.6v5.8h2.4c.6 0 1.1 0 1.3-.1.2 0 .4-.1.6-.3.3-.2.6-.6.8-1 .2-.4.5-1.2.8-2.1h.2l-.4 3.9H164v-.4h1.6zM33.1 125.2v-12c7.5 0 10.3-.4 11.6 8.8h.8v-10.3H25v1.4h3.5v26.4h-3.9v1.4h21.1v-10.8h-1.1c-1 8.2-3.1 9.4-8.9 9.4H33v-12.8h1.6c2.6.1 4.1 1.6 4.6 6.1h1v-13.2h-.9c0 .1-.2 5.7-4.7 5.6h-1.5z"/>
        <path d="M24.7 125.7H13.2v1.3h4v9.5c-.7 2.4-4.2 3.4-5.3 3.4-7.4 0-6.8-10.8-6.8-13.7 0-2.6-.3-13.7 6.8-13.7 5 0 7.6 5 8.7 9.5h.8v-10.6c0-.1-3.4 2.5-3.4 2.4.1 0-1.6-2.4-6.1-2.4-8.7 0-11.9 8.7-11.9 14.7 0 5.5 2.6 15 11.9 15 2.9 0 5-1.5 6.1-3.2l3.7 2.9V127h3.1v-1.3zM125.6 130.5l4.2-12.6 4.5 12.6h-8.7zm-16.4-5.1h-4.7v-12.2h6.1c3.6.5 3.7 4.6 3.7 6 0 3.1-1.4 6.2-5.1 6.2m50.4 4.8c-1 8.2-3.1 9.4-8.9 9.4h-.4v-26.4h3.7v-1.4h-12.1v1.4h3.7v26.4h-2.9L131.9 111h-1.6s-8.9 25.9-9 26c0-.1-.7 2.2-2.2 2.5-1.4.1-1.3-.6-1.3-.9v-5c0-1.3-.1-4.3-1.5-5.7-1.5-1.5-4.1-1.7-4.1-1.7s6.6-1.4 6.6-7.7c0-4.4-3.1-6.6-8.2-6.8H96.3v1.4h3.7v26.4h-3.7v1.4h11.9v-1.4h-3.7v-12.7h5c8.6.7-1.5 14.1 9.8 14.1h7.1v-1.4c-.4 0-3 .1-3.2-1.7-.1-1.3 1.7-6 1.7-6h9.7l3 7.8h-3.4v1.4h26.4v-10.8h-1zM81.9 113.2c7.5 0 10.3-.4 11.6 8.9h.8v-10.3H64.5v1.4h.8c1.1 0 3.6.1 3.7 2.3v16.8l-14-20.5h-7.6v1.4h1.3c1.5 0 3.6.1 3.7 2.3V137c0 2.1-3.1 2.9-4.5 2.9v1h10.3v-1c-1.3 0-4.5-.8-4.5-2.9v-19c5.5 7.9 16 22.9 16 22.9h.5v-25.5c.1-2.2 2.6-2.3 3.7-2.3h3.4v26.4h-3.9v1.4h21.1v-10.8h-1.1c-1 8.2-3.1 9.4-8.9 9.4h-2.7v-12.8h1.6c2.6.1 4.1 1.6 4.6 6h1v-13.2h-.9c0 .1-.2 5.7-4.7 5.6H82v-11.9zM173.9 113.2v-1.4H162v1.4h3.8v26.4H162v1.4h11.9v-1.4h-3.7v-26.4z"/>
        <g>
            <path d="M131.5 87.5c.4-.9 1-1.5 2-1.7l9.6-2.1-.9-8.6v-.2c-.2-1.1-1-4.6-5.4-4.9-17.2-1.4-21.2-3.9-25.4-6.6l-.3-.2c-4.5-2.9-8.9-2.9-9.3-2.9-4.9 0-11 1.9-11.5 2.1-1.5.4-2.9.9-4.2 1.3-5.4 1.7-10 3.2-17.9 3h-1.4l-.5 1.3c-.3 1.1-2.5 9.7-.4 15.3-1.9 1.5-1.9 3.2-1.9 3.4.1 1.9-.4 2.4-.5 2.5-.9.9-3.9 1.1-6.4 1.1h-.9l-.5.7c-1.6 2.1-4.9 2.6-7.1 2.1-1-2.9-1-5.1-.1-6.4 1.1-1.6 3.4-1.7 4.3-1.7h.5c2.3 0 4.1-1.9 4.1-4.2V65.4c.7-1.1 1.3-2.3 1.7-3.7 3.8-.6 6.7-3.8 6.7-7.7 0-1.5-.4-2.9-1.2-4.1 3.5-1.7 6.5-5.1 6.5-9.6s-2.3-6.6-4.4-7.9c.6-1.7 1.6-4.8 2.3-7.8l3-10.8c1.4-4.2 4.9-7 9-7h53.2c-2.3 3.2-5.5 4.7-9.9 4.7H92.2L90.5 15h28.9c-2.3 3.6-5.6 5.3-10.3 5.3h-21l-1.7 3.6h18.7C102.9 27.4 99.6 29 95 29H83.6l-1.7 3.6h12c.1.1.4.7.4 2.2 0 2.3-1.9 4.2-4.3 4.2-.8 0-1.5-.2-2.8-.7-.5-.2-1.1-.4-1.6-.7l-2.8 2.5c.5.2 1 .4 1.6.7 2.4 1 3.7 1.6 5.6 1.6 2.2 0 4.2-.9 5.6-2.4 2.1.1 5.4.4 8.6.7 3.8.3 7.4.6 9.3.7.9.1 1.8.1 2.6.1l4.5.3c7.3 11.8 11 13.3 25.1 15 1 1.8 1.9 3.7 2.8 5.7v23.1c.1 1.1.1 1.4-.1 1.6-.5.6-2.7 1.5-3.4 1.9l-12 4.4c-1.5-2.1-2.1-4.3-1.5-6m-2.5 6.3h-23.5l10-10.6c2-2.1 2.7-4.6 1.8-7.1-.5-1.4-1.8-4.2-3.2-7 4 1.9 10 3.5 22.3 4.5 1.5.1 1.9.6 2.2 2l.5 5.3-6.4 1.4c-2.2.4-3.8 1.8-4.6 3.9-.8 2.3-.5 5 .9 7.6m-42.3 0c-.7-2.6-.4-4.6.8-5.9 1.1-1.3 2.8-1.7 4-1.5l6.9 1.3h1.2l4.8-5.2c.8-1 3.3-3.9.8-7.6l-6.5-10.7c1.1-.2 2.1-.2 3.1-.2 0 0 3.3 0 6.8 2 .5 1 1.1 2.3 1.9 3.8 1.4 2.8 3.1 6.2 3.5 7.6.2.4.6 1.8-1 3.4l-12.4 13.1H86.7zm-2-8.3c-1.3 1.5-2.6 4.1-1.8 8.3h-22c2.4-.2 4.1-.8 5.3-2 1.4-1.5 1.6-3.6 1.5-5 0-.1.3-.6 1.4-1.1l1.9-.9-1.2-1.8c-1.9-2.9-1.1-9.2-.3-12.7h.2c7.5 0 12.3-1.6 17.4-3.2 1.3-.4 2.7-.9 4.2-1.3 0 0 1.5-.5 3.6-1l7.2 11.9.1.1c.7 1 .8 1.7-.5 3.2L98 83.9l-5.9-1.1H92c-2.6-.4-5.5.7-7.3 2.7m-39.1-.8c-1.6 2.2-1.8 5.3-.6 9.1h-3.7V64.7c1.3-.2 2.8-.6 4.1-1.2-.1 1.3-.2 2.3-.5 3.6-.1.3-.1.6-.2 1l-.4 2.1h2.1c3.2 0 5.6-.5 7.4-1.4V81c0 .3-.2.6-.5.6h-.5c-3.2-.2-5.8 1-7.2 3.1m-8 5.9l-17-4.4-17 4.4V60.2l17-4.4 17 4.4v30.4zM5.8 93.8l14.8-3.9 14.8 3.9H5.8zm6-44.8c.7-1.1 2.3-2 4.4-1.7l1.5.3.5-1.5c.1-.4.3-.7.5-.9.4-.4 1.1-.6 1.9-.6 2.2.1 4.9 1.6 7.1 4 .8.9 1.5 1.9 2.2 2.9.1.2.3.4.4.6.2.3.3.5.4.6.1.1 1.2 1.8 1.1 1.9l2.2-3.1s0-.1-.1-.3c-.2-.4-.6-1-.8-1.4l-.2-.3s-.1-.2-.3-.4c-.2-.4-.6-1-.8-1.3l4.7-7.5c1.2.2 2.2.3 2.7.3h.1c6.6 0 13.5-3.8 13.5-10.2v-.2c-.1-1.7-.4-3.4-.7-4.7-.2-.9-.3-1.7-.3-2.1 0-.7 1-1.5 2.4-1.5h2.1l-1-5.6c3-2.2 4.9-5.8 4.8-9.3 3.2 2.5 5.5 6.8 6 11.4.1 1.3-.1 3.2-.6 5.2l-.2.8c-.8 3.2-1.9 6.5-2.5 8.1l-.5 1.5 1.4.8c2.4 1.4 3.9 2.4 3.9 5.6 0 3.7-3.3 6.5-6.5 7.1l-4.3.8 3.7 2.5c1.2.8 1.9 2.1 1.9 3.4 0 2.3-2 4.2-4.4 4.2h-1.4l-.4 1.3c-1.4 4.4-2.8 6.5-7.5 7 .2-1.3.4-2.6.4-4.4 0-.4 0-1.6-.1-2l-.2-4.1-2.9 2.9c-1 1-2.7 1.8-4.6 2.2v-3.6l-20.6-5.4-7.4 1.7c-1.6-1.6-2-4.4-1.5-5M34 35.8c.1-.2.3-.4.5-.4l3.1.1c3.8-.1 7.6-1.7 8.1-5.6 0-2.7-1.9-5.3-4.6-5.3-1.4 0-3 1-4.8 2.2-1.2.8-2.1 1.4-2.8 1.4-.5 0-.9-.3-.9-.6v-.1l2-2.7-1.7-1.2c-.4-.2-.9-.7-1-1 0-.2.2-.4.3-.5.7-.8 1.5-1.8 2.3-3.1.5-.7.8-1.1 1.6-1.1s1.5.7 1.5 1.5c0 .5.6 1 1.3 1 .7 0 1.1-.5 1.5-1 0 0 1.8-1.6.8-2.4-1.1-.9-5.3.9-4.2-3l.3-.6c.5-.6 2.5-2.1 6.7-2.1.8 0 1.6.1 2.5.2l.6.1 9-5.5c.1.2.1.3.1.3v.1c.5 2.7-1.2 6-4 7.5l-1.1.6.7 4c-2.3.7-3.9 2.6-3.9 4.8 0 .8.2 1.7.4 2.8.2 1.3.5 2.7.6 4.2 0 4.2-5.8 7-10.7 6.8h-.1c-.2 0-3.3-.3-4.1-.9.1-.1 0-.3 0-.5m7.5-28.1c.5-.8 1.4-1.6 2.5-2.3.9-.6 2-1.1 3.1-1.4 1.7-.5 3.7-.5 5.8-.1l-6.4 3.9c-.8-.1-1.6-.1-2.3-.1-1.1 0-2.1.1-3 .2.1-.1.2-.2.3-.2m97-1h24c-2.3 3.2-5.5 4.7-9.9 4.7h-17.7c1.4-1.2 2.6-2.8 3.6-4.7m-1.2 13.6h-17.7c1.6-1.4 2.9-3.2 3.9-5.3h24.1c-2.2 3.6-5.6 5.3-10.3 5.3M123.2 29h-17.7c1.5-1.3 2.8-3 3.8-5.1h24.1c-2.3 3.5-5.6 5.1-10.2 5.1m4.1 13.6c5.6.9 10.2 3.5 13.7 7.5.7.9 1.5 1.8 2.2 2.8-9.4-1.2-12.7-2.6-18-10.6.6 0 1.3.1 2.1.3M165 81.4c.3.6.6 1.1.9 1.6.4.6.7 1.2 1.1 1.9-2.7-.2-4.8-1.7-6.7-4.6 1.8-.6 3.9-.1 4.7 1.1m-22.5 12.4l3.7-1.4h.1c5.2-2.2 6-3.5 5.7-7V71.3c4 10.1 7.7 17.2 15.5 17.2 1.1 0 2.2-.1 3.4-.4l3-.7-2.1-2.3c-1.3-1.5-2-2.6-2.7-3.9-.3-.5-.6-1.1-1-1.7-1.8-2.9-6.1-3.9-9.6-2.4-1.6-3.1-3.2-7.2-5.1-12.3l-.4-1c-.3-.8-.7-1.5-1-2.3v-.1h-.1c-1.2-2.7-2.4-5.3-4-7.8-1.4-2.3-2.8-4.2-4.3-6-4-4.7-9.4-7.7-15.8-8.7-4.5-.7-7.7-.9-11.7-1.1-.8 0-1.7-.1-2.6-.1-1.8-.1-5.6-.4-9.2-.7-2.5-.2-5-.4-6.9-.6.1-.6.2-1.1.2-1.7 0-.8-.1-1.5-.2-2.2h25.8c6.6 0 11.5-2.9 14.3-8.7 6.6-.1 11.4-3.1 14.2-8.9h.9c6.9 0 11.8-3.1 14.6-9.3l1.2-2.5H81.1c-5.7 0-10.6 3.7-12.5 9.5l-.1.2c-1.5-4.1-4.2-7.7-7.7-9.7C56 .2 50.5-.7 46.1.5c-1.5.4-2.9 1.1-4.1 1.8-1 .7-2.4 1.7-3.4 3a29.7 29.7 0 00-3 4.8c-.5.4-.9.8-1.2 1.2l-1 2-.1.1a26.6 26.6 0 01-4 6.2 4.28 4.28 0 00-1.1 3.5c.2.9.7 1.7 1.2 2.3v.1c-.3.6-.5 1.3-.5 2 0 2.3 2 4 4.5 4 1.8 0 3.3-.8 4.8-1.9.6-.4 2.3-1.5 2.8-1.6.7 0 1.3.6 1.3 1.3 0 1.9-2.4 2.9-4.2 3l-3.5.4c-2.6.2-3.8 1.6-3.8 2.8 0 1.2.6 1.9 1 2.3l.3.3.9.8-3.8 6.1c-2.7-2.5-5.8-4-8.6-4.1-1.8-.1-3.4.5-4.5 1.6-.3.3-.6.7-.9 1.1h-.1c-3 0-5.4 1.6-6.5 3.4-1.3 2-.8 5.3.8 7.9L0 57.4v45.4h174.2v-9.1h-31.7z" class="st0" />
        </g>
        <path d="M33.9 64.9l-11.4-3v3.8l11.4 2.9zM7.4 68.6l11.4-2.9v-3.8l-11.4 3zM7.4 76.1l11.4-3v-3.7l-11.4 3zM33.9 72.4l-11.4-3v3.7l11.4 3zM33.9 79.9l-11.4-3v3.7l11.4 3zM7.4 83.6l11.4-3v-3.7l-11.4 3z"/>
    </g>
</svg>
