<svg version="1.1" xmlns="http://www.w3.org/2000/svg" xmlns:xlink="http://www.w3.org/1999/xlink" viewBox="0 0 754 754"><path fill="#22BDEF" d="M351.23 0h50c.68 1.4 2.01.9 3.08.97 18.96 1.35 37.82 3.72 56.22 8.4q200.8 51.11 272.66 245.6c13.38 36.35 19.05 74.35 20.27 113.02V385a394.22 394.22 0 0 1-10.24 79.1c-46.2 192.89-237 324.2-442.07 281.04C162.35 715.92 68.96 630.77 20 497.59 6.92 462.03 1.36 424.83 0 387.01v-21.02a410.54 410.54 0 0 1 5.09-51.14Q29.25 175.29 138.4 85.07C194.48 38.8 259.05 11.63 331.27 2.7c6.66-.82 13.5-.4 19.96-2.7M280.56 865.48c0-11.45.2-21.77-.1-32.07-.11-3.96 1.69-4.1 4.75-4.18 3.32-.09 4.6.67 4.58 4.33-.17 25.13-.1 50.26-.07 75.39 0 2.99.36 5.99.28 8.97-.06 2.32 2.39 5.83-3 5.92-4.23.07-7.28-.23-6.36-5.62a13.22 13.22 0 0 0-.29-2.71c-2.96 2.94-5.56 5.4-8.75 7.1-13.8 7.29-29.38 2.05-35.94-12.39-5.17-11.38-5.5-23.25-1.94-35.09 5.95-19.74 28.48-25.91 43.94-12.23l2.9 2.58m-.25 23.8c-.27-4.14-.63-8.76-2.46-13.14-3.4-8.12-9.34-11.97-18.35-11.74-7.95.2-13.22 4.2-16.03 12.53-2.97 8.79-2.66 17.7-.19 26.5 2.52 8.96 7.45 13.27 15.03 13.67 8.7.47 15.55-3.74 19.05-11.72 2.17-4.97 2.66-10.26 2.95-16.1M373.62 893.33c-7.16 0-14.32-.02-21.48.01-1.6 0-3.27-.37-3.28 2.38A21.05 21.05 0 0 0 368.03 917c8.6.81 15.87-3.43 19.26-11.24 1.49-3.42 6.16-5.37 9.41-4.06 1.75.7 1 1.96.72 2.88-3.3 10.6-9.63 18.13-21.07 20.3-11.96 2.28-22.66.42-30.34-10-9.62-13.08-9.59-34.96.1-47.98 7.77-10.46 18.48-12.98 30.7-10.23 12.25 2.77 18.2 11.52 20.7 23.06 2.95 13.57 2.83 13.6-10.9 13.6h-12.99m-4.51-8.68c5.64 0 11.29-.08 16.93.05 2.35.05 2.73-.88 2.46-2.98-1.3-10.18-9-17.16-19.23-17.31-9.94-.14-17.91 6.84-19.64 16.94-.48 2.82.48 3.42 3.05 3.35 5.47-.14 10.95-.04 16.43-.05M126.4 865.5c5.34-6.32 10.85-9.13 17.45-9.74 14.45-1.33 24.62 7.06 25.46 22.35.8 14.28.28 28.63.3 42.95.01 4.55-3.52 2.17-5.5 2.62-2.72.61-3.73-.62-3.7-3.51.14-12.15.08-24.31.04-36.47a36.85 36.85 0 0 0-.37-5.96c-1.25-7.4-5.38-11.89-11.87-13.07-8.06-1.47-14.75 1.3-18.53 7.7-2.52 4.29-3.3 9-3.28 13.9.04 11-.18 22 .11 32.98.1 4.01-1.42 4.64-4.9 4.59-3.25-.04-4.69-.59-4.67-4.33q.22-42.96-.03-85.92c-.03-4.36 2.03-4.22 5.13-4.37 3.51-.17 4.53 1 4.45 4.5-.22 10.08-.08 20.18-.08 31.79M626.6 925.67a30.74 30.74 0 0 1-16.3-3.86 17.2 17.2 0 0 1-8.33-10.18c-.62-2.08-2.36-5.17-.33-6.4 1.98-1.2 5.14-.53 7.78-.5 1.7.02 1.37 1.65 1.62 2.66a11.47 11.47 0 0 0 8.77 8.66c5.57 1.5 11.22 1.68 16.66-.53 4.7-1.91 7.57-5.3 7.5-10.68-.07-5.24-3.51-7.77-7.86-9.1-6.52-1.97-13.24-3.26-19.72-5.33-7.03-2.24-12.6-6.21-13.15-14.49-.51-7.55 2.33-13.5 9.18-16.84 9.46-4.6 19.27-4.72 29-.71 5.28 2.17 8.46 6.36 9.78 11.85.38 1.57 1.71 4.27-.76 4.6-2.78.37-6.58 2.13-8.55-1.44a17.68 17.68 0 0 0-23.98-7.18c-3.22 1.73-5.03 4.4-4.89 8.06.13 3.38 2.2 5.6 5.28 6.56 6.66 2.07 13.4 3.88 20.07 5.9 10.73 3.23 15.37 8.35 15.47 16.9.12 9.47-5.17 16.55-15.02 20a33.26 33.26 0 0 1-12.22 2.06M418.74 865.13c7.31-8.2 15.61-10.86 25.37-8.8 10.48 2.23 16.91 9.62 17.35 21.45.54 14.3.15 28.64.34 42.96.05 4.1-2.72 2.85-4.77 2.96-2.27.13-4.57.64-4.5-3.22.2-12.33.08-24.65.07-36.98-.02-12.5-5.12-18.8-15.4-19.1-10.58-.3-18.05 6.86-18.47 18.59-.42 11.98-.26 23.98-.09 35.97.05 3.5-.56 4.91-4.54 4.94-4.14.02-4.83-1.45-4.85-5.16-.07-18.81.64-37.64-.44-56.45-.11-2-1.41-5.1 2.8-4.67 2.9.3 7.22-1.65 6.73 4.19a20.7 20.7 0 0 0 .4 3.32M51.45 890.66a40.13 40.13 0 0 1 5.08-20.58 28.07 28.07 0 0 1 36.64-11.87c7.37 3.37 11.54 9.2 13.04 17.11.48 2.49.14 3.57-2.77 3.69-4.08.16-6.65-.01-7.94-5.18-2.5-10.04-17.86-12.97-26.1-5.47-10.8 9.83-10.78 34.81.05 44.7 8.54 7.8 22.9 4 26.55-6.94.46-1.38-.3-3.8 2.08-4a24.7 24.7 0 0 1 7.43.21c1.84.42.59 2.25.37 3.42-1.72 8.99-6.29 15.93-15.38 18.52-10.65 3.04-20.9 2.15-29.21-6.18-7.51-7.54-9.77-17.14-9.84-27.43M506.75 894.85c0-8.15-.15-16.31.06-24.47.09-3.25-.9-4.6-4.19-4.17-1.31.17-2.68-.13-3.99.05-3.96.58-5.24-1.03-4.99-4.97.17-2.7.73-3.69 3.63-3.75 9.47-.18 9.47-.3 9.48-9.61 0-1.33-.02-2.66.02-4 .46-12.96 9.23-19.01 21.79-15.4 3.76 1.09 2.66 3.66 2.72 5.93.08 3.18-2.37 2.03-3.97 2-9.4-.14-11.52 1.93-11.38 11.3.13 9.8.13 9.92 10 9.78 3.38-.05 4.93.37 4.95 4.45 0 4.37-2.13 4.3-5.23 4.28-9.62-.05-9.62.02-9.62 9.71 0 14.48-.12 28.97.08 43.44.05 3.6-1.13 4.46-4.53 4.42-3.38-.04-5.12-.41-4.94-4.53.35-8.14.1-16.3.1-24.46M670.12 890.7c0-6.82-.11-13.64.05-20.46.07-2.94-.77-4.4-3.91-4.03-1.31.16-2.68-.13-3.99.05-3.85.54-5.25-.85-5.07-4.88.14-3.09 1-3.86 4.03-3.84 8.78.04 8.78-.11 8.9-9.26.04-3.58 4.62-7.86 7.96-7.52 1.54.16 1.28 1.26 1.3 2.17.04 3.5.2 7-.03 10.48-.2 3.1.59 4.7 4.05 4.25 1.8-.24 3.7.23 5.48-.1 4.9-.92 5.47 1.66 5.21 5.61-.15 2.43-1.06 3.05-3.33 3.11-3.6.09-8.37-1.65-10.52.79-2.46 2.78-.74 7.63-.8 11.57-.13 9.48-.08 18.96-.02 28.44.05 8.34 2.58 10.5 11 9.94 1.56-.1 4.3-2.06 4.39 1.73.06 2.8 1.13 6.18-3.57 6.57-4 .33-7.93.66-11.87-.45-5.49-1.55-8.59-5.2-8.8-10.74-.3-7.8-.08-15.62-.08-23.43h-.38M314.8 863.6c5.08-6.7 11.48-8.45 18.91-7.99 4.86.3 2.5 3.72 2.95 5.86.58 2.74-.87 3.18-3.4 3.1-11.8-.34-18.2 5.22-18.7 17.03-.51 12.47-.37 24.97-.23 37.45.05 3.66-.87 4.88-4.7 4.82-3.65-.04-4.82-.9-4.8-4.73.1-18.97-.14-37.95-.17-56.92 0-1.77-1.55-4.94 2.37-4.52 2.69.28 7.3-2.34 6.93 3.78a7.9 7.9 0 0 0 .83 2.11M575.56 863.7c4.93-6.63 11.35-8.57 18.94-8.12 4.78.28 2.72 3.53 3.1 5.72.44 2.49-.42 3.4-3.23 3.32-12.12-.34-18.17 4.66-18.89 16.73-.72 12.27-.45 24.61-.38 36.92.02 3.6-.12 5.69-4.85 5.67-4.59-.03-4.55-2.13-4.55-5.45.02-18.8-.12-37.61-.16-56.42 0-1.87-1.34-4.86 2.52-4.4 2.7.34 7.32-2.17 6.75 3.95a7.83 7.83 0 0 0 .75 2.08M220.8 876.59c0 14.3-.13 28.61.09 42.92.05 3.68-1.26 4.42-4.58 4.32-3.02-.1-4.77-.17-4.74-4.14q.27-43.18 0-86.35c-.03-4.05 1.87-3.97 4.81-4.1 3.46-.17 4.55.88 4.5 4.42-.2 14.3-.08 28.62-.08 42.93M542.56 890.13c0-9.65.23-19.3-.1-28.95-.14-4.17 2.22-3.54 4.7-3.58 2.56-.03 4.7-.42 4.65 3.64q-.35 29.45 0 58.9c.04 4.13-2.2 3.58-4.7 3.6-2.59.04-4.77.38-4.65-3.66.32-9.98.1-19.97.1-29.95M185.63 890.37c0-9.65.2-19.3-.1-28.95-.11-3.77 1.63-3.9 4.45-3.86s4.97-.3 4.92 3.93q-.35 29.2 0 58.42c.05 4.29-2.27 3.75-4.99 3.88-2.97.14-4.46-.36-4.37-3.96.27-9.81.1-19.64.1-29.46M711.26 923.47c-5.25 1.3-6.95-.46-6.7-5.74.23-4.5.47-6.9 6.1-6.63 4.62.23 6.66 1.02 6.02 6.03-.47 3.68 1.17 8.6-5.42 6.34M185.08 834.33c-1.48-5.44 2.12-4.71 5.56-5.13 5.68-.69 4.62 2.85 5.04 6.3.6 5.05-2.1 4.83-5.76 5.14-5.53.47-5.36-2.66-4.84-6.3M547.54 840.37c-4.1.82-6.24-.14-5.86-4.94.29-3.63-.4-6.82 5.16-6.25 3.62.36 6.44.05 5.74 5.16-.48 3.41.78 7.55-5.04 6.03"/><path fill="#fff" d="M384.98 523.39c-14.53.1-22.57-4.74-24.62-14.34-.5-2.3-2.15-5.39 1.44-6.36 2.84-.76 5.98-1.42 8.13 2.44 5.54 9.9 12.13 12.52 22.1 9.23 4.78-1.58 8.5-4.2 8.65-9.92.15-5.77-3.36-8.61-8.26-10.04-6.05-1.77-12.3-2.88-18.26-4.87-8.44-2.83-14.38-7.92-13.47-17.98.87-9.64 7.07-14.74 15.63-16.66 10.02-2.26 20.26-2.7 28.47 5.31 2.92 2.85 6.1 7.61 2.8 10.55-3.14 2.8-7.38 1.31-10.33-3.82-3.99-6.97-19.02-6.8-24.47-.66-4.26 4.81-2.91 11.28 3.5 13.74 5.85 2.25 12.11 3.42 18.16 5.19 12.53 3.65 16.92 9.1 16.08 19.79-.76 9.6-7.65 16.1-19 17.8-2.5.36-5.03.46-6.55.6M482.33 519.25c.27 2.45-1.02 3-2.8 3.06-3.2.1-5.9.12-7.74-3.65-2.25-4.62-2.04-12.2-7.6-13.17-8.56-1.5-17.55-.54-26.36-.52-3.18 0-3.92 2.73-4.92 5-1.26 2.88-2.6 5.74-3.62 8.71-1.59 4.63-5.56 4.46-8.53 3.22-3.32-1.39-.67-4.33.2-6.43 7.74-18.57 15.57-37.1 23.3-55.68 1.3-3.14 2.81-5.28 6.8-5.12 3.5.14 5.78.86 7.22 4.49 7.64 19.28 15.54 38.47 23.33 57.7a23.09 23.09 0 0 1 .72 2.4m-43.91-22.89c7.08 0 12.72-.16 18.34.06 4.24.16 5.88-1.21 4.25-5.44-3.15-8.15-6.26-16.32-10.02-26.12l-12.57 31.5M343.93 480.97c0 6.94.54 13.93-.1 20.8-1.34 14.24-11.18 21.85-27.06 21.66-15.24-.18-25.2-7.93-26.04-21.76s-.33-27.75-.47-41.63c-.03-3.28.72-5.37 4.7-5.32 3.8.06 4.88 1.84 4.86 5.26-.06 11.99-.13 23.98.03 35.97.18 12.9 5.71 19.05 16.93 19.27 11.8.23 17.69-5.79 18.03-19.17.3-11.67.1-23.35.1-35.03 0-3.32.03-6.27 4.8-6.3 4.95-.03 4.57 3.22 4.58 6.38.04 6.62.02 13.25.02 19.88h-.38M411.33 390.56c-8.83 0-17.65.12-26.47-.06-3.13-.06-4.48.66-4.29 4.08a41.05 41.05 0 0 0 2.7 13.62 22.39 22.39 0 0 0 32.2 10.34 15.66 15.66 0 0 0 7.26-10.88c.61-3.23 2.12-4.37 5.38-4a39.25 39.25 0 0 0 8.48 0c4.45-.47 4.5 1.6 3.58 5-3.2 11.83-10.93 19.2-22.4 22.71a50.06 50.06 0 0 1-26.15 1.03c-11.71-2.69-20.04-9.65-24.2-20.95-5.69-15.4-5.8-31.01.15-46.33 6.96-17.88 23.57-26.52 43.7-23.3 18.05 2.88 29.12 15.5 30.48 34.76 1 14 1 14-12.95 14h-17.48m-8.76-11.6c6.32 0 12.64-.02 18.96.01 1.84.01 3-.2 3.18-2.6.76-9.97-6.02-19.85-15.59-22.32-14.54-3.77-27.87 6.67-28.33 22-.08 2.79 1.3 2.94 3.32 2.93 6.16-.04 12.31-.02 18.46-.02M177.77 355.36c12.41-14.35 26.72-17.9 42.86-11.17 10.88 4.54 16.47 12.98 16.71 24.43.41 19.81.12 39.64.24 59.46.01 2.73-1.1 3.27-3.55 3.38-13.3.6-13.3.66-13.3-12.58 0-14.5.08-28.99-.07-43.48-.13-13.9-6.04-20.75-18.25-21.56-12.1-.8-22.28 7.24-23.78 19.35-2.06 16.59-.54 33.28-.89 49.92-.17 8.3-.03 8.3-8.51 8.3-8.13 0-8.13 0-8.13-8.24 0-24.82.1-49.64-.1-74.46-.04-4.27 1.23-5.68 5.31-5.1 3.57.5 8.3-1.59 10.46.98 1.78 2.13.74 6.63 1 10.77M127.26 419.38c-6.28 8.72-14.36 13.25-24.3 14.2-19.93 1.93-33.15-8.84-33.94-28.85-.76-19.3-.18-38.66-.27-57.99-.01-2.41.89-3.02 3.2-3.16 13.63-.8 13.63-.86 13.63 12.68v39a54.57 54.57 0 0 0 .83 10.93c1.97 9.6 6.76 14.55 15.16 15.4 10.53 1.04 19.48-3.75 22.77-12.47a54.44 54.44 0 0 0 3.27-19.1c.05-14 .15-28-.04-42-.04-3.47.86-4.49 4.41-4.47 12.45.06 12.45-.08 12.45 12.44 0 23.5-.1 47 .08 70.49.04 3.95-1.05 5.46-5.02 4.97-3.6-.44-8.07 1.42-10.66-.78-2.69-2.28-.1-6.96-1.57-11.28M299.24 386.52c.08 8.93.64 16.23 3.67 23.07 3.75 8.44 11.14 12.75 20 11.84 8.6-.88 13.93-5.9 15.82-15.4.63-3.15 1.72-4.68 5.13-4.25a58.95 58.95 0 0 0 7 .05c5.32.03 5.58.38 4.33 5.8-4.04 17.59-20.1 28.04-39.5 25.7-17.4-2.08-28.12-11.62-32.08-28.74-3.04-13.11-2.79-26.14 2.04-38.8a38.21 38.21 0 0 1 50.49-21.99c10.96 4.43 17.07 12.77 18.8 24.46.38 2.6-.12 3.82-2.93 3.5a29.6 29.6 0 0 0-3 0c-3-.03-6.25.68-8.91-.29-3.12-1.13-1.85-5.16-3.02-7.78-2.68-6.05-6.95-9.6-13.6-10.16-7.88-.68-14.53 1.43-18.87 8.52-4.9 8.03-5.25 17.02-5.38 24.48M460.65 393.28c0-11.17-.14-22.34.09-33.5.07-3.57-1.05-4.8-4.5-4.35-1.63.22-3.36-.18-4.98.08-4.66.73-5.64-1.24-5.8-5.7-.19-5.2 1.4-6.45 6.37-6.21 8.8.42 8.82.11 8.82-8.76v-7.5c.08-17.48 10.9-27.49 28.4-26.27.34.02.67.06 1 .1 9.98.97 11.5 3.17 9.7 13.22-.4 2.28-1.65 2.15-3.16 1.94a34.19 34.19 0 0 0-11.44.26c-4.62.93-7.55 3.53-7.72 8.42-.18 5.33-.05 10.66-.18 16-.05 2.31 1.12 2.76 3.1 2.72 4.33-.07 8.67.2 12.99-.08 3.43-.22 4.51 1.17 4.1 4.32a6.9 6.9 0 0 0 0 2c.7 4.28-.8 6.11-5.38 5.58-3.45-.4-7 .15-10.48-.15-3.65-.3-4.4 1.22-4.38 4.57.13 22-.03 43.99.16 65.98.03 3.98-1.15 5.05-5.06 5-11.65-.15-11.65.01-11.65-11.68v-26zM252.73 387.64c0-13.32.1-26.64-.07-39.95-.04-3.28.94-4.18 4.2-4.2 12.68-.06 12.68-.18 12.68 12.63 0 23.47-.09 46.95.08 70.42.03 3.72-.95 4.83-4.71 4.8-12.18-.04-12.18.1-12.18-12.23v-31.47M261.5 305.2c9.46 0 9.46 0 9.46 9.28 0 8.86 0 8.86-8.94 8.86-10.71 0-10.71 0-10.71-10.58 0-7.56 0-7.56 10.18-7.56M544.14 359.06a57.81 57.81 0 0 1 57.7-57.94c31.5-.05 57.56 25.57 57.8 56.81.24 32.22-25.19 58.44-56.93 58.7a57.8 57.8 0 0 1-58.58-57.57m2.5-2.57c11.9-5.95 11.93-5.95 11.02-18.2-.5-6.63 1.35-12.23 7.03-16.06 5.83-3.93 11.94-3.52 18.01-.53a25.7 25.7 0 0 1 8.29 6.32c4.18 4.88 4.58 9.58 1.36 15.16-.83 1.43-2.01 2.84-2.27 4.38-1.7 10.17-4.85 12.67-14.78 11.39-3.12-.4-4.82.4-4.13 4.11 1 5.4 1.77 10.84 2.44 16.28.23 1.84.72 3.57 2.52 3.85 4.27.66 8.56 2.83 12.9-.34 2.3-1.69 8.12.35 8.5 2.57.64 3.8-3.31 8.8-6.99 7.94-5-1.16-9.53.48-14.26.95a22.6 22.6 0 0 1-6.95-.15c-1.34-.28-2.96-2.4-4.13.21-.98 2.21-1.43 4.25.6 6.4 4.65 4.9 10.15 4.52 15.72 2.6 6.59-2.26 12.92-5.26 20.01-5.91a3.8 3.8 0 0 0 3.62-4.58c-1.56-6.87-.55-14.88-8.6-19.06-3.08-1.6-3.44-4.32-1.97-8.09 1.77-4.49 7.09-7.52 5.57-13.44-.3-1.15 1.32-1.7 2.59-1.67 5.1.18 8.68-2.37 12.02-6a18.82 18.82 0 0 1 18.12-6c12.07 2.17 21.44 14.41 20.98 27.36-.46 12.71-9.64 22.4-22.69 23.5-3.25.26-3.53 1.76-3.08 4.2a12.83 12.83 0 0 0 5.06 7.76c1.61 1.3 2.75 1 4.34-.19 19.81-14.88 25.86-48.54 12.44-69.72-.53-.83-1.08-1.98-1.87-2.24-2.06-.69-8.74 5.53-8.82 8.42a14.25 14.25 0 0 0-6.94-2.51c1.04-1.6 3.7-2.19 1.88-4.58-1.98-2.6-2.83-7.12-6.06-7.38-2.9-.23-6.45 1.86-8.87 3.92-1.4 1.2 1.02 3.83 1.28 5.9.15 1.18 1.9 2.77.25 3.5-2.25.99-1.94-1.56-2.53-2.7-.97-1.9-.87-5.46-2.57-5.6a29.72 29.72 0 0 0-11.26 1.42c-2.49.79-.9 3.81-1.25 5.81-.75 4.25 1.26 5.2 5.08 4.42a53.42 53.42 0 0 1 7.01-.46c-1.82 3.13-4.2 2.61-6.23 2.98-2.48.46-6.02-1.02-6.23 3.52a1.54 1.54 0 0 1-1.19.5c-1.2-.13-.94-1.19-.95-1.92-.05-3.17-.16-6.34 0-9.5.19-3.38.26-6.36-4.55-5.9a1.72 1.72 0 0 1-1.71-2.05c1.84-1.28 5.08 1 5.78-1.1.84-2.52 2-6.46-.71-8.14-2.44-1.52-6.43-2.88-8.07 2.11-.32.98-.8 3.2-2.54 2.2-1.55-.9.02-2.32.49-3.46.61-1.53 2.51-2.95-.23-4.5-2.04-1.17-3.6-1.98-5.68 0-1.4 1.32-2.72 3.4-5.64 2.81.66-2.38 2.6-3.16 3.9-4.5.8-.84 2.62-1.28 1.15-3.1a2.71 2.71 0 0 0-3.82-.9 56.35 56.35 0 0 0-11.87 7.32c-12.72 10.47-19.42 23.98-20.52 40.68m90.36-39.55c-1.44 1.9-4.84 2.03-5.34 5.06-.23 1.36 6.55 9.72 7.2 9.3 2.5-1.7 6.16-2 7.27-5.32.42-1.26-7.68-9.12-9.13-9.04m-33.78 4.89c-.09 2.74-.62 5.62 3.54 4.82 2.65-.51 7.02.5 7.2-2.66.13-2.33-.92-7.12-5.26-7.2-3-.05-6.8.3-5.48 5.03m14.47-9.38a46.28 46.28 0 0 0-4.35 3.02c-.53.45 3.55 8.54 4.37 8.55 3.07 0 5.63-1.57 8.18-3.04a1.28 1.28 0 0 0 .17-1.23 32.66 32.66 0 0 0-8.37-7.3m16.99 2.43a3.56 3.56 0 0 0-.59-.87 46.8 46.8 0 0 0-10.3-5.9c-1.48-.63-2.06.64-2.8 1.44-.93 1.01-.2 1.74.59 2.45q3.3 3.02 6.53 6.1c1.59 1.51 2.76.18 3.9-.61 1.02-.7 2.36-1.2 2.67-2.61m-30.52-7.47l-.92.44c0 1.8-.03 3.6.02 5.4a1.35 1.35 0 0 0 1.57 1.47c1.12-.1 2.45.23 3.23-.78.62-.8-.2-1.57-.65-2.21-1.03-1.47-2.16-2.88-3.25-4.32m-4.18.15c-1.23 2.34-4.69 3.36-3.8 6.52.13.48 2.48 1.02 3.15.57 2.7-1.84.76-4.59.65-7.1m8.14-.9q-.34.35-.69.68c1.03 1.5 1.99 3.04 3.1 4.47 1.37 1.78 2.89.66 3.76-.38 1.27-1.49-.65-1.85-1.43-2.34-1.5-.94-3.15-1.63-4.74-2.42m-11.9.34c-2.58.93-5.5 1.29-7 3.83-.44.74.98 1.31 1.58 1.45 4.05.9 3.48-3.56 5.43-5.28m-4.06-2.08c-2.76.14-5.56.06-7.64 2.25a1.97 1.97 0 0 0 .83 1.07c3.18.8 4.64-1.97 6.8-3.32m18.73.06c2.56 1.5 4.34 2.65 6.23 3.59a1.62 1.62 0 0 0 2.04-.97c.65-1.18-.5-1.48-1.13-1.59-2.08-.38-4.06-1.66-7.14-1.03M598.65 429.4c-4.92-2.25-8.67-3.57-13.05.18-3.82 3.27-9.11 2.62-13.95 2.48-6.57-.18-12.79-1.84-19.8-4.74a81.75 81.75 0 0 1 32.09-3.9 10.65 10.65 0 0 1 2.47.36c11.36 3.82 22.55 2.19 34.02-.05 10.74-2.1 21.46.22 32.28 3.22a36.97 36.97 0 0 1-36 .67c-3.4-1.82-6.35.38-10.2 1.74 5.8 3.92 11.16 7.5 15.32 12.44.93 1.12 3.63 2.16 1.18 4.35-2.22 1.98-3.2-.1-4.35-1.4a77.56 77.56 0 0 0-12.96-11.67c-2.28-1.65-4.06-1.5-6.24.07a69.1 69.1 0 0 0-13.26 12.08c-1.14 1.4-2.23 2.54-4.07.88s-.17-2.66.68-3.7c4.27-5.18 9.83-8.87 15.83-13M537.22 406.08c6.14 4.1 13.19 6.65 19.06 11.2 1.67 1.29 4.76 2.6 4.18 4.41-.78 2.44-4.06 1.36-6.19 1.25-11.45-.6-17.84-8.04-23.45-17.66l6.44.88zM644.3 422.16c4.6-6.41 20.98-15.59 29.43-16.65-5.32 12.81-16.9 19.52-29.43 16.65"/><path fill="#fff" d="M554.3 399.18c8.07 6 14.67 11.44 20.18 18.1.78.96 2.18 2.08 1.4 3.4-.75 1.23-2.43.66-3.7.63-7.73-.17-12.54-4.32-15.33-11.28-1.24-3.09-1.77-6.3-2.56-10.85M537.26 406.16c.93-2.36-1.46-2.32-2.43-3.07-7.62-5.88-12.52-13.4-14.2-23.02 9.96 6.57 17.28 15.4 22.73 25.8-2.3 2.11-4.17-2.24-6.15.21l.05.07M650.1 399.91c.39 12.54-7 21.4-17.47 21.4-1.1 0-2.53.5-3.22-.67-.7-1.2.4-2.22 1.1-3.04a101.77 101.77 0 0 1 19.6-17.69M684.81 379.14c-1.22 12.33-11.26 24.36-23.53 27.76a79.06 79.06 0 0 1 23.53-27.76M660.93 381.49c4.95 12.38 1.68 23.45-8.35 29.3-1.83-5.75 2.76-22.12 8.35-29.3M544.38 382.05c4.81 5.05 9.57 20.69 8.67 28.5-9.94-3.92-14.1-17.6-8.67-28.5M673.84 383.86c2.36-11.26 6.04-20.94 12.6-29.98 2.71 12.07-2.4 24.55-12.6 29.98M666.98 393.16c-3.41-10.22-3.67-19.66-2.2-29.73 8.02 7.84 9.06 19.96 2.2 29.73M523.12 357.93c-1.82 1.83.37 2.93.92 4.18 3 6.82 6.14 13.58 6.98 21.22-9.55-2.77-14.87-18.8-12.5-28.64 2.6-.34 1.7 4.22 4.68 3.33zM540.44 362.85c1.5 10.66 1.3 20.19-2.1 29.83-7.11-7.9-6.41-19.43 2.1-29.83M523.2 358.02c-1.77-7.22-3.13-14.45-1.04-21.85.49-1.7.67-3.52 2.47-5.82 3.13 10.44 4.33 20.21 2.6 30.31-2.36 0-2.12-2.86-4.11-2.73l.08.09M677.95 361.72a69.4 69.4 0 0 1 2.59-31.02c5.6 8.47 4.76 22.34-2.6 31.02M540.07 346.6a56.97 56.97 0 0 1-8.78 26.45c-4.12-9.44-.2-21.04 8.78-26.45M665.05 346.33c9.12 6.15 12.69 16.42 9.13 26.93a58 58 0 0 1-9.13-26.93M672.15 337.02c1.05 4.32 3.58 8.43 2.17 13.34-5.97-4.17-12.42-15.07-13.17-22.07 4.72 1.7 7.24 6.05 11.05 8.77zM530.53 351.5c-.36-12.03 5.55-18.36 14.97-23.75-3.19 9.36-7.45 16.74-14.97 23.75M540.35 315.75c-1.52 8.87-4.1 16.38-10.5 22.25-2.93-6.55 1.17-15.5 10.5-22.26"/><path fill="#fff" d="M672.2 337.06c2-1.5-.1-2.31-.67-3.2a37.92 37.92 0 0 1-6.33-17.67c8.4 5.5 12.37 13.58 10.74 21.3-1.47 1.3-2.14-3.05-3.79-.46l.05.04"/><path fill="none" d="M0 0h753.46v925.88H0z"/></svg>