<?xml version="1.0" encoding="utf-8"?>
<!-- Generator: Adobe Illustrator 24.2.1, SVG Export Plug-In . SVG Version: 6.00 Build 0)  -->
<svg version="1.1" id="Layer_1" xmlns="http://www.w3.org/2000/svg" xmlns:xlink="http://www.w3.org/1999/xlink" x="0px" y="0px"
	 viewBox="0 0 20 20" style="enable-background:new 0 0 20 20;" xml:space="preserve">
<style type="text/css">
	.st0{fill:#ffffff;}
</style>
<g>
	<polygon class="st0" points="2.3,16.1 1.5,16.1 1.5,16.4 2.2,16.4 2.2,16.6 1.5,16.6 1.5,17 2.3,17 2.3,17.3 1.2,17.3 1.2,15.8 
		2.3,15.8 	"/>
	<path class="st0" d="M4,17.2l-0.2-0.2C3.9,16.9,4,16.8,4,16.5c0-0.7-0.5-0.8-0.7-0.8c-0.2,0-0.7,0.1-0.7,0.8c0,0.7,0.5,0.8,0.7,0.8
		c0.1,0,0.2,0,0.4-0.1l0.2,0.2L4,17.2z M3.3,16.9L3.4,17c-0.1,0-0.1,0-0.2,0c-0.2,0-0.4-0.1-0.4-0.5S3.1,16,3.3,16
		c0.2,0,0.4,0.1,0.4,0.5c0,0.1,0,0.2-0.1,0.3l-0.2-0.1L3.3,16.9z"/>
	<path class="st0" d="M5.4,16.8c0,0.4-0.2,0.6-0.6,0.6c-0.1,0-0.3,0-0.5-0.2c-0.1-0.1-0.1-0.2-0.1-0.4v-1h0.3v1
		c0,0.2,0.1,0.3,0.3,0.3c0.2,0,0.3-0.1,0.3-0.3v-1h0.3V16.8z"/>
	<path class="st0" d="M6,17h0.5l0.1,0.3H7l-0.5-1.5H6.1l-0.5,1.5h0.3L6,17z M6.2,16.1L6.2,16.1l0.2,0.6H6.1L6.2,16.1z"/>
	<polygon class="st0" points="7.5,17 8.2,17 8.2,17.3 7.2,17.3 7.2,15.8 7.5,15.8 	"/>
	<polygon class="st0" points="9.4,16.6 9.4,17.3 9.1,17.3 9.1,15.8 9.4,15.8 9.4,16.4 10,16.4 10,15.8 10.3,15.8 10.3,17.3 10,17.3 
		10,16.6 	"/>
	<path class="st0" d="M10.6,16.5c0,0.7,0.5,0.8,0.7,0.8c0.2,0,0.7-0.1,0.7-0.8c0-0.7-0.5-0.8-0.7-0.8C11.1,15.8,10.6,15.8,10.6,16.5
		 M10.9,16.5c0-0.4,0.2-0.5,0.4-0.5c0.2,0,0.4,0.1,0.4,0.5c0,0.4-0.2,0.5-0.4,0.5C11.1,17.1,10.9,17,10.9,16.5"/>
	<path class="st0" d="M13.4,16.8c0,0.4-0.2,0.6-0.6,0.6c-0.1,0-0.3,0-0.5-0.2c-0.1-0.1-0.1-0.2-0.1-0.4v-1h0.3v1
		c0,0.2,0.1,0.3,0.3,0.3c0.2,0,0.3-0.1,0.3-0.3v-1h0.3V16.8z"/>
	<path class="st0" d="M14,16.8c0,0.1,0,0.2,0.3,0.2c0.1,0,0.3,0,0.3-0.2c0-0.1-0.1-0.1-0.3-0.2l-0.2,0c-0.2-0.1-0.5-0.1-0.5-0.4
		c0-0.2,0.1-0.5,0.6-0.5c0.5,0,0.6,0.3,0.6,0.5h-0.3c0-0.1,0-0.2-0.3-0.2c-0.1,0-0.3,0-0.3,0.2c0,0.1,0.1,0.1,0.2,0.2l0.4,0.1
		c0.2,0,0.4,0.1,0.4,0.4c0,0.4-0.5,0.5-0.6,0.5c-0.5,0-0.6-0.3-0.6-0.5H14z"/>
	<rect x="15.2" y="15.8" class="st0" width="0.3" height="1.5"/>
	<polygon class="st0" points="16.7,15.8 17,15.8 17,17.3 16.7,17.3 16.1,16.2 16.1,16.2 16.1,17.3 15.8,17.3 15.8,15.8 16.1,15.8 
		16.7,16.8 16.7,16.8 	"/>
	<path class="st0" d="M18,16.5h0.6v0.8h-0.2l0-0.2c-0.1,0.1-0.2,0.2-0.5,0.2c-0.4,0-0.7-0.3-0.7-0.8c0-0.4,0.2-0.8,0.7-0.8
		c0.5,0,0.6,0.3,0.6,0.5h-0.3c0-0.1-0.1-0.2-0.3-0.2c-0.2,0-0.4,0.2-0.4,0.5c0,0.4,0.2,0.5,0.4,0.5c0.1,0,0.3,0,0.4-0.3H18V16.5z"/>
	<path class="st0" d="M1.1,18.8c0,0.7,0.5,0.8,0.7,0.8c0.2,0,0.7-0.1,0.7-0.8S2,18,1.9,18C1.7,18,1.1,18.1,1.1,18.8 M1.5,18.8
		c0-0.4,0.2-0.5,0.4-0.5c0.2,0,0.4,0.1,0.4,0.5S2,19.3,1.9,19.3C1.7,19.3,1.5,19.2,1.5,18.8"/>
	<path class="st0" d="M3.4,19h0.4c0.4,0,0.5-0.3,0.5-0.5c0-0.3-0.2-0.5-0.5-0.5H3.1v1.5h0.3V19z M3.4,18.7v-0.4h0.2
		c0.2,0,0.3,0.1,0.3,0.2c0,0.1,0,0.2-0.2,0.2H3.4z"/>
	<path class="st0" d="M5.1,19h0.4c0.4,0,0.5-0.3,0.5-0.5c0-0.3-0.2-0.5-0.5-0.5H4.8v1.5h0.3V19z M5.1,18.7v-0.4h0.2
		c0.2,0,0.3,0.1,0.3,0.2c0,0.1,0,0.2-0.2,0.2H5.1z"/>
	<path class="st0" d="M6.4,18.8c0,0.7,0.5,0.8,0.7,0.8c0.2,0,0.7-0.1,0.7-0.8S7.3,18,7.1,18C6.9,18,6.4,18.1,6.4,18.8 M6.7,18.8
		c0-0.4,0.2-0.5,0.4-0.5c0.2,0,0.4,0.1,0.4,0.5s-0.2,0.5-0.4,0.5C6.9,19.3,6.7,19.2,6.7,18.8"/>
	<path class="st0" d="M8.3,19.5h0.3v-0.6h0.3c0.2,0,0.2,0.1,0.2,0.3c0,0.2,0,0.2,0,0.3h0.3v0c-0.1,0-0.1-0.1-0.1-0.3
		c0-0.3-0.1-0.3-0.2-0.4c0.1,0,0.2-0.2,0.2-0.4C9.5,18.3,9.4,18,9,18H8.3V19.5z M8.6,18.7v-0.4H9c0.2,0,0.2,0.1,0.2,0.2
		c0,0.1-0.1,0.2-0.2,0.2H8.6z"/>
	<polygon class="st0" points="10.7,19.5 10.4,19.5 10.4,18.3 9.9,18.3 9.9,18 11.1,18 11.1,18.3 10.7,18.3 	"/>
	<path class="st0" d="M12.8,19c0,0.4-0.2,0.6-0.6,0.6c-0.1,0-0.3,0-0.5-0.2c-0.1-0.1-0.1-0.2-0.1-0.4v-1h0.3v1
		c0,0.2,0.1,0.3,0.3,0.3c0.2,0,0.3-0.1,0.3-0.3v-1h0.3V19z"/>
	<polygon class="st0" points="14.2,18 14.5,18 14.5,19.5 14.2,19.5 13.6,18.5 13.6,18.5 13.6,19.5 13.3,19.5 13.3,18 13.7,18 
		14.2,19.1 14.2,19.1 	"/>
	<rect x="15.1" y="18" class="st0" width="0.3" height="1.5"/>
	<polygon class="st0" points="16.6,19.5 16.3,19.5 16.3,18.3 15.9,18.3 15.9,18 17.1,18 17.1,18.3 16.6,18.3 	"/>
	<polygon class="st0" points="18.2,19.5 17.9,19.5 17.9,19 17.4,18 17.8,18 18.1,18.7 18.4,18 18.7,18 18.2,19 	"/>
	<path class="st0" d="M16.5,12.4H3.3V6.1l6.7-3.4l6.6,3.4V12.4z M9.9,0.4L0,5.3v2.3h1.1v6.9h17.6V7.6H20V5.3L9.9,0.4z"/>
	<rect x="6.8" y="6.1" class="st0" width="6.1" height="2.2"/>
	<rect x="6.8" y="9.3" class="st0" width="6.1" height="2.2"/>
</g>
</svg>
