
<svg xmlns="http://www.w3.org/2000/svg" version="1.1" xmlns:xlink="http://www.w3.org/1999/xlink" preserveAspectRatio="none" x="0px" y="0px" width="195px" height="52px" viewBox="0 0 195 52">
<defs/>

<g id="Layer_1">
<g transform="matrix( 1, 0, 0, 1, -53.15,-16.2) ">
<g>
<g>
<path fill="#373A36" stroke="none" d="
M 118.6 49.25
L 110.35 30.25 110.05 30.25 102.3 49.05
Q 101.45 51.1 100.2 52.2 98.95 53.4 97.6 53.4
L 97.25 53.4 97.25 54.1 105.45 54.1 105.45 53.4 105.1 53.4
Q 104.1 53.4 103.5 52.75 102.9 52.15 102.9 51.25
L 103 50.55 104.4 47 113.35 47 115 50.7
Q 115.2 51.15 115.2 51.6 115.2 52.35 114.55 52.9 113.9 53.35 113 53.35
L 112.65 53.35 112.65 54.1 123.5 54.1 123.5 53.35 123.15 53.35
Q 121.5 53.35 120.5 52.2 119.5 51.2 118.6 49.25
M 108.7 36.35
L 112.8 45.85 104.85 45.85 108.7 36.35 Z"/>
</g>
</g>
</g>

<g transform="matrix( 1, 0, 0, 1, -53.15,-16.2) ">
<g>
<g>
<path fill="#373A36" stroke="none" d="
M 130.55 40
L 131.6 39.85
Q 132.9 39.85 133.7 40.65 134.55 41.5 134.55 43.15
L 134.55 50.9
Q 134.55 52.35 134.1 52.85 133.65 53.35 132.55 53.35
L 131.8 53.35 131.8 54.05 140.45 54.05 140.45 53.35 139.7 53.35
Q 138.55 53.35 138.2 52.85 137.75 52.25 137.75 50.9
L 137.75 42.5
Q 138.45 41.65 138.65 41.45 139.1 41 139.7 40.6
L 140.85 40 141.9 39.85
Q 143.2 39.85 144 40.65 144.8 41.45 144.8 43.15
L 144.8 50.85
Q 144.8 52.35 144.4 52.8 143.95 53.3 142.85 53.3
L 142.1 53.3 142.1 54.05 150.75 54.05 150.75 53.3 150 53.3
Q 148.95 53.3 148.5 52.8 148.05 52.3 148.05 50.85
L 148.05 42.1
Q 148.05 40.05 146.9 38.75 145.8 37.55 143.6 37.55 141.75 37.55 140.35 38.55 138.85 39.55 137.7 41.35 137.45 39.4 136.45 38.55 135.35 37.55 133.3 37.55 131.7 37.55 130.2 38.5 128.85 39.35 127.45 41.3
L 127.45 37.6 121.85 38.05 121.85 38.8 122.2 38.8
Q 123.3 38.8 123.75 39.3 124.25 39.8 124.25 41.25
L 124.25 50.9
Q 124.25 52.3 123.75 52.85 123.25 53.35 122.2 53.35
L 121.85 53.35 121.85 54.05 130.3 54.05 130.3 53.35 129.55 53.35
Q 128.4 53.35 127.95 52.85 127.45 52.3 127.45 50.9
L 127.45 42.5
Q 128.15 41.65 128.35 41.45 128.8 41 129.4 40.6
L 130.55 40 Z"/>
</g>
</g>
</g>

<g transform="matrix( 1, 0, 0, 1, -53.15,-16.2) ">
<g>
<g>
<path fill="#373A36" stroke="none" d="
M 164 41.65
Q 163.4 40.4 162.5 39.5 161.75 38.65 160.3 38.1 159 37.6 157.6 37.6 156 37.6 154.65 38.35 153.05 39.1 152.2 40.1 151.2 41.1 150.5 42.8 149.85 44.25 149.85 46.25 149.85 48.05 150.45 49.55 150.95 51 152.05 52.1 153.05 53.15 154.5 53.75 156 54.35 157.7 54.35 159 54.35 160.1 53.9 161.2 53.55 162.1 52.7 163 51.95 163.55 50.85 164.1 49.8 164.35 48.4
L 163.85 48.25
Q 163.25 50.05 162.05 51.2 160.7 52.3 159.05 52.3 157.9 52.3 156.8 51.75 155.8 51.15 155.15 50.2 154.5 49.35 154.05 47.95 153.7 46.75 153.7 45.05
L 153.7 44.55 164.6 44.55
Q 164.6 42.95 164 41.65
M 157.55 38.6
Q 158.55 38.6 159.2 39 159.9 39.4 160.4 40.05 160.8 40.65 161.1 41.65 161.35 42.4 161.35 43.55
L 153.75 43.55
Q 153.9 42.4 154.2 41.5 154.5 40.6 155.05 39.9 155.8 39.15 156.2 38.95 156.85 38.6 157.55 38.6 Z"/>
</g>
</g>
</g>

<g transform="matrix( 1, 0, 0, 1, -53.15,-16.2) ">
<g>
<g>
<path fill="#373A36" stroke="none" d="
M 171.25 39.8
L 171.75 39.7
Q 172.45 39.7 172.7 40.1
L 173.25 41.15 173.9 41.75
Q 174.35 42.05 174.85 42.05 175.6 42.05 176.3 41.5 176.95 41 176.95 40 176.95 38.8 176.2 38.2 175.45 37.6 174.15 37.6 172.95 37.6 171.95 38.25 170.9 38.8 170.25 39.85
L 170.25 37.6 164.2 38.05 164.2 38.8 164.55 38.8 165.7 38.9
Q 166.3 39.05 166.55 39.3 167.05 39.9 167.05 41.25
L 167.05 50.9
Q 167.05 52.25 166.55 52.85 166.05 53.35 164.95 53.35
L 163.75 53.35 163.75 54.1 173.45 54.1 173.45 53.35 172.3 53.35
Q 171.15 53.35 170.7 52.85 170.2 52.35 170.2 50.9
L 170.2 42.55
Q 170.2 41.7 170.35 41.1 170.65 40.4 170.8 40.25 170.9 40.05 171.25 39.8 Z"/>
</g>
</g>
</g>

<g transform="matrix( 1, 0, 0, 1, -53.15,-16.2) ">
<g>
<g>
<path fill="#373A36" stroke="none" d="
M 177.6 38.05
L 177.6 38.8 177.95 38.8
Q 178.75 38.8 179.4 39.25 180 39.7 180 41.15
L 180 50.9
Q 180 52.3 179.5 52.85 179 53.35 177.9 53.35
L 177.15 53.35 177.15 54.05 186.8 54.05 186.8 53.35 185.6 53.35 184.5 53.2
Q 183.9 53.05 183.7 52.85 183.2 52.3 183.2 50.9
L 183.25 50.9 183.25 37.6 177.6 38.05
M 180 31.75
Q 179.35 32.4 179.35 33.3 179.35 34.2 180 34.8 180.6 35.45 181.6 35.45 182.55 35.45 183.2 34.8 183.85 34.15 183.85 33.3 183.85 32.4 183.2 31.75 182.55 31.1 181.6 31.1 180.6 31.1 180 31.75 Z"/>
</g>
</g>
</g>

<g transform="matrix( 1, 0, 0, 1, -53.15,-16.2) ">
<g>
<g>
<path fill="#373A36" stroke="none" d="
M 201.1 30.7
L 200.25 30.7 200.25 31
Q 200.25 31.4 200.05 31.65 199.85 31.85 199.65 31.85 199.3 31.85 198.85 31.55
L 196.25 30.6
Q 195.25 30.25 193.8 30.25 192.3 30.25 191.1 30.65 190.05 30.95 188.8 31.85 187.8 32.7 187.2 33.8 186.6 34.95 186.6 36.35 186.6 38.7 188.05 40.4 189.4 42 192.25 43.25
L 194.75 44.3
Q 195.8 44.8 196.75 45.5 197.6 46.2 198.1 47.05 198.6 47.9 198.6 49 198.6 50.95 197.4 52 196.25 53.15 194.25 53.15 193 53.15 191.8 52.55 190.7 52.05 189.7 51 188.7 49.95 188.1 48.7 187.5 47.3 187.2 45.9
L 186.4 45.9 186.4 54.05 187.2 54.05
Q 187.2 52.9 187.5 52.5 187.7 52.15 188.1 52.15
L 188.6 52.2 189 52.4
Q 190.15 53.1 191.5 53.75 192.85 54.25 194.45 54.25 195.8 54.25 197.15 53.8 198.5 53.35 199.55 52.4 200.6 51.65 201.35 50.2 202.05 48.8 202.05 47.15 202.05 44.8 200.65 43.3 199.15 41.75 196.2 40.55 194.6 39.95 193.7 39.45 192.6 38.85 191.7 38.15 190.9 37.55 190.35 36.7 189.85 35.7 189.85 34.9 189.85 33.3 190.95 32.35 192.05 31.35 193.85 31.35 196.2 31.35 197.85 32.95 199.95 34.9 200.25 37.3
L 201.1 37.3 201.1 30.7 Z"/>
</g>
</g>
</g>

<g transform="matrix( 1, 0, 0, 1, -53.15,-16.2) ">
<g>
<g>
<path fill="#373A36" stroke="none" d="
M 210.15 37.6
Q 209.25 37.6 208 37.85 206.8 38.1 206.1 38.5 204.5 39.35 203.75 40.75
L 203.55 41.35 203.5 41.9
Q 203.5 42.55 203.9 43.05 204.35 43.5 205.05 43.5 205.9 43.5 206.25 43.05 206.7 42.55 206.7 41.85 206.7 41.55 206.55 41.15 206.4 40.85 206.4 40.55 206.4 40.2 206.85 39.8 206.9 39.7 207.65 39.15 208.4 38.55 209.7 38.55 211.05 38.55 211.85 39.35 212.65 40.15 212.65 41.7
L 212.65 43.95 208.2 45.1
Q 205.75 45.7 204.35 47 203 48.3 203 50.1 203 51 203.35 51.85 203.7 52.65 204.35 53.2 205 53.8 205.75 54 206.5 54.3 207.45 54.3
L 208.55 54.2 209.6 53.95 210.8 53.3
Q 211.2 53.05 212.05 52.3
L 212.65 51.7
Q 212.95 53 213.7 53.65 214.5 54.3 215.55 54.3 216.8 54.3 217.75 53.35 218.65 52.3 218.7 50.65
L 218.3 50.55
Q 218.15 51.25 217.8 51.6 217.4 51.85 216.95 51.85 216.5 51.85 216.2 51.5 215.9 51.2 215.9 50.5
L 215.9 42.35
Q 215.9 41.05 215.45 40.05 215.05 39.2 214.25 38.6 213.5 38.1 212.45 37.85 211.2 37.6 210.15 37.6
M 210.15 45.65
L 212.65 44.75 212.65 50.65 211.95 51.3
Q 211.25 51.9 210.7 52.1 210.05 52.4 209.05 52.4 207.6 52.4 206.9 51.55 206.25 50.65 206.25 49.65 206.25 47 210.15 45.65 Z"/>
</g>
</g>
</g>

<g transform="matrix( 1, 0, 0, 1, -53.15,-16.2) ">
<g>
<g>
<path fill="#373A36" stroke="none" d="
M 217.9 39.5
Q 218.8 40.85 219.15 41.6
L 225.45 54.1 225.95 54.1 231.3 41.6
Q 232.5 38.8 234.65 38.8
L 235.4 38.8 235.4 38.05 228.7 38.05 228.7 38.8 229.05 38.8
Q 230.55 38.8 230.55 39.9
L 230.15 41.4 226.8 49.1 223.05 41.5
Q 222.65 40.7 222.65 40.2 222.65 39.6 223.1 39.15 223.5 38.8 224.4 38.8
L 225.15 38.8 225.15 38.05 215.7 38.05 215.7 38.8 216.45 38.8
Q 217.2 38.8 217.9 39.5 Z"/>
</g>
</g>
</g>

<g transform="matrix( 1, 0, 0, 1, -53.15,-16.2) ">
<g>
<g>
<path fill="#373A36" stroke="none" d="
M 247.7 44.55
Q 247.7 42.95 247.1 41.65 246.55 40.35 245.6 39.5 244.85 38.65 243.4 38.1 242.1 37.6 240.7 37.6 239.05 37.6 237.75 38.35 236.4 38.9 235.3 40.1 234.3 41.1 233.6 42.8 232.95 44.25 232.95 46.25 232.95 48.05 233.55 49.55 234.05 50.95 235.1 52.1 236.2 53.2 237.6 53.75 239.05 54.35 240.8 54.35 242.1 54.35 243.2 53.9 244.3 53.55 245.2 52.7 246.1 51.95 246.65 50.85 247.2 49.7 247.45 48.4
L 246.95 48.25
Q 246.35 50.1 245.15 51.2 243.8 52.3 242.15 52.3 241 52.3 239.9 51.75 238.8 51.05 238.25 50.2 237.6 49.45 237.15 47.95 236.8 46.75 236.8 45.05
L 236.8 44.55 247.7 44.55
M 244.2 41.65
Q 244.45 42.35 244.45 43.55
L 236.9 43.55
Q 236.95 42.5 237.3 41.5 237.7 40.55 238.2 39.9 238.7 39.25 239.35 38.95 240 38.6 240.65 38.6 241.65 38.6 242.3 39 243.05 39.5 243.45 40.05 243.95 40.7 244.2 41.65 Z"/>
</g>
</g>
</g>

<g transform="matrix( 1, 0, 0, 1, -53.15,-16.2) ">
<g>
<g>
<path fill="#373A36" stroke="none" d="
M 158.65 60.6
L 156.5 60.6 155.25 64.9 155.2 64.9 153.95 60.6 151.75 60.6 151.75 66.55 153.15 66.55 153.05 62 153.1 62 154.6 66.55 155.85 66.55 157.3 62 157.35 62 157.3 66.55 158.65 66.55 158.65 60.6 Z"/>
</g>
</g>
</g>

<g transform="matrix( 1, 0, 0, 1, -53.15,-16.2) ">
<g>
<g>
<path fill="#373A36" stroke="none" d="
M 170.45 60.9
Q 169.8 60.55 168.9 60.55 168 60.55 167.35 60.9 166.7 61.3 166.3 61.95 166 62.65 166 63.6 166 64.6 166.3 65.25 166.7 66 167.35 66.3 168 66.7 168.9 66.7 169.65 66.7 170.45 66.3 171.1 65.9 171.45 65.25 171.8 64.6 171.8 63.6 171.8 62.65 171.45 61.95 171.15 61.3 170.45 60.9
M 170.2 63.6
Q 170.2 64.25 170.05 64.6 170 64.95 169.65 65.2 169.4 65.4 168.9 65.4 168.4 65.4 168.2 65.2 167.85 65.05 167.7 64.6 167.55 64.15 167.55 63.6 167.55 62.95 167.7 62.55 167.85 62.25 168.2 61.95 168.5 61.75 168.9 61.75 169.25 61.75 169.65 61.95 169.9 62.2 170.05 62.55 170.2 63.1 170.2 63.6 Z"/>
</g>
</g>
</g>

<g transform="matrix( 1, 0, 0, 1, -53.15,-16.2) ">
<g>
<g>
<path fill="#373A36" stroke="none" d="
M 184.25 62.45
Q 184.25 61.55 183.65 61.1 182.9 60.6 182 60.6
L 182 60.65 179.15 60.65 179.15 66.55 180.65 66.55 180.65 64.4 181.6 64.4 182.85 66.55 184.55 66.55 183.05 64.2
Q 183.45 64.05 183.65 63.85 184.25 63.35 184.25 62.45
M 182.45 62
Q 182.65 62.2 182.65 62.55 182.65 63 182.45 63.15 182.25 63.3 181.8 63.3
L 180.7 63.3 180.7 61.8 181.8 61.8
Q 182.25 61.8 182.45 62 Z"/>
</g>
</g>
</g>

<g transform="matrix( 1, 0, 0, 1, -53.15,-16.2) ">
<g>
<g>
<path fill="#373A36" stroke="none" d="
M 191.15 61.8
L 193.1 61.8 193.1 66.55 194.6 66.55 194.6 61.8 196.55 61.8 196.55 60.6 191.15 60.6 191.15 61.8 Z"/>
</g>
</g>
</g>

<g transform="matrix( 1, 0, 0, 1, -53.15,-16.2) ">
<g>
<g>
<path fill="#373A36" stroke="none" d="
M 206.15 60.55
Q 205.3 60.55 204.6 60.9 203.9 61.3 203.6 61.95 203.25 62.6 203.25 63.6 203.25 64.6 203.6 65.25 203.9 65.95 204.55 66.3 205.2 66.65 205.95 66.65 206.8 66.65 207.2 66.3 207.5 66.05 207.65 65.8
L 207.75 66.55 208.75 66.55 208.75 63.35 206.1 63.35 206.1 64.4 207.45 64.4 207.45 64.5
Q 207.45 64.85 207.35 64.95 207.25 65.15 207.1 65.25
L 206.75 65.45 206.3 65.5
Q 205.8 65.5 205.45 65.3 205.15 65.05 205 64.65 204.8 64.3 204.8 63.6 204.8 62.85 205 62.6 205.1 62.25 205.45 62 205.7 61.75 206.2 61.75 206.55 61.75 206.9 62 207.2 62.15 207.3 62.65
L 208.75 62.05
Q 208.35 61.25 207.8 60.9 207.25 60.55 206.15 60.55 Z"/>
</g>
</g>
</g>

<g transform="matrix( 1, 0, 0, 1, -53.15,-16.2) ">
<g>
<g>
<path fill="#373A36" stroke="none" d="
M 219.6 60.6
L 217.75 60.6 215.7 66.55 215.7 66.6 217.25 66.6 217.65 65.25 219.7 65.25 220.1 66.55 221.7 66.55 219.6 60.6
M 218.65 61.85
L 218.7 61.85 219.4 64.2 218 64.2 218.65 61.85 Z"/>
</g>
</g>
</g>

<g transform="matrix( 1, 0, 0, 1, -53.15,-16.2) ">
<g>
<g>
<path fill="#373A36" stroke="none" d="
M 231.1 60.55
Q 230.2 60.55 229.55 60.9 228.9 61.3 228.5 61.95 228.2 62.65 228.2 63.6 228.2 64.6 228.5 65.25 228.85 66 229.5 66.3 230.05 66.65 230.9 66.65 231.75 66.65 232.15 66.3 232.45 66.05 232.6 65.8
L 232.65 66.55 233.7 66.55 233.7 63.35 231.05 63.35 231.05 64.4 232.4 64.4 232.4 64.5 232.3 64.95 232.05 65.25 231.65 65.45 231.2 65.5
Q 230.65 65.5 230.4 65.3 230 65 229.9 64.65 229.75 64.3 229.75 63.6
L 229.9 62.6
Q 230.05 62.25 230.35 62 230.7 61.75 231.1 61.75 231.5 61.75 231.85 62 232.05 62.1 232.25 62.65
L 233.7 62.05
Q 233.3 61.3 232.75 60.9 232.2 60.55 231.1 60.55 Z"/>
</g>
</g>
</g>

<g transform="matrix( 1, 0, 0, 1, -53.15,-16.2) ">
<g>
<g>
<path fill="#373A36" stroke="none" d="
M 245.25 64.15
L 245.25 63.05 242.8 63.05 242.8 61.8 245.85 61.8 245.85 60.6 241.25 60.6 241.25 66.55 246 66.55 246 65.35 242.8 65.35 242.8 64.15 245.25 64.15 Z"/>
</g>
</g>
</g>

<g transform="matrix( 1, 0, 0, 1, -53.15,-16.2) ">
<g>
<g>
<path fill="#009490" stroke="none" d="
M 89.55 54.1
L 89.55 25.3 71.85 17.15 54.15 25.3 89.55 54.1 Z"/>
</g>
</g>
</g>

<g transform="matrix( 1, 0, 0, 1, -53.15,-16.2) ">
<g>
<g>
<path fill="#00698F" stroke="none" d="
M 71.85 17.15
L 54.15 25.3 54.15 51.6 71.85 17.15 Z"/>
</g>
</g>
</g>

<g transform="matrix( 1, 0, 0, 1, -53.15,-16.2) ">
<g>
<g>
<path fill="#3BD4AE" stroke="none" d="
M 89.55 54.1
L 89.55 25.3 56.9 54.1 89.55 54.1 Z"/>
</g>
</g>
</g>
</g>
</svg>
